<svg width="0" height="0" class="hidden">
  <symbol version="1.0" xmlns="http://www.w3.org/2000/svg" preserveAspectRatio="xMidYMid meet" viewBox="0 0 96.000000 96.000000" id="apps">
    <g transform="translate(0.000000,96.000000) scale(0.100000,-0.100000)" stroke="none">
      <path d="M568 772 c-61 -62 -88 -95 -88 -112 0 -33 167 -200 200 -200 33 0
200 167 200 200 0 17 -27 50 -88 112 -62 61 -95 88 -112 88 -17 0 -50 -27
-112 -88z"></path>
      <path d="M142 757 c-20 -21 -22 -34 -22 -138 0 -108 2 -117 23 -137 21 -20 34
-22 138 -22 108 0 117 2 137 23 20 21 22 34 22 138 0 108 -2 117 -23 137 -21
20 -34 22 -138 22 -108 0 -117 -2 -137 -23z"></path>
      <path d="M142 397 c-20 -21 -22 -34 -22 -138 0 -108 2 -117 23 -137 21 -20 34
-22 138 -22 108 0 117 2 137 23 20 21 22 34 22 138 0 108 -2 117 -23 137 -21
20 -34 22 -138 22 -108 0 -117 -2 -137 -23z"></path>
      <path d="M502 397 c-20 -21 -22 -34 -22 -138 0 -108 2 -117 23 -137 21 -20 34
-22 138 -22 108 0 117 2 137 23 20 21 22 34 22 138 0 108 -2 117 -23 137 -21
20 -34 22 -138 22 -108 0 -117 -2 -137 -23z"></path>
    </g>
  </symbol>
</svg>