<svg width="0" height="0" class="hidden">
  <symbol version="1.0" xmlns="http://www.w3.org/2000/svg" preserveAspectRatio="xMidYMid meet" viewBox="0 0 1200.000000 1543.000000" id="chel_gerb">
    <g transform="translate(0.000000,1543.000000) scale(0.100000,-0.100000)" stroke="none">
      <path d="M5927 15416 c-84 -31 -152 -114 -179 -218 -6 -27 -17 -48 -23 -48 -7
0 -39 -14 -73 -30 -135 -68 -211 -216 -182 -358 13 -64 51 -140 85 -172 l23
-21 -48 -45 c-69 -64 -104 -147 -104 -244 -1 -66 4 -85 32 -142 37 -75 99
-136 166 -164 l42 -18 -39 -140 c-21 -78 -42 -144 -46 -149 -4 -4 -223 300
-487 677 -263 376 -480 683 -482 681 -1 -1 18 -294 43 -650 25 -356 44 -649
43 -651 -2 -1 -226 271 -498 606 -272 335 -495 608 -497 607 -1 -2 83 -459
188 -1016 105 -557 188 -1015 186 -1018 -3 -2 -411 309 -908 691 -497 382
-905 693 -907 691 -2 -2 942 -1746 986 -1820 12 -21 -40 24 -186 158 -317 290
-489 408 -618 423 -41 5 -62 0 -129 -29 -155 -66 -305 -110 -708 -207 -366
-88 -467 -130 -572 -242 -106 -112 -146 -214 -126 -325 16 -84 72 -191 136
-257 30 -32 53 -61 50 -66 -3 -4 -141 -76 -307 -159 -170 -85 -337 -175 -381
-206 -81 -59 -166 -153 -210 -233 -85 -157 -78 -395 19 -630 78 -191 159 -302
427 -589 256 -273 321 -377 369 -586 17 -74 21 -128 22 -277 1 -182 -9 -346
-22 -366 -5 -7 -61 -5 -172 8 -353 39 -425 29 -536 -74 -119 -112 -199 -277
-244 -504 -31 -156 -39 -474 -16 -674 32 -275 73 -436 181 -720 200 -524 270
-909 245 -1340 -16 -286 -39 -449 -145 -1025 -112 -612 -136 -818 -136 -1158
1 -455 54 -832 166 -1172 110 -331 220 -513 449 -741 110 -109 197 -182 602
-501 170 -134 296 -248 395 -358 130 -144 319 -334 380 -380 119 -92 257 -155
445 -202 94 -23 129 -27 254 -27 130 0 153 3 226 27 159 53 279 158 358 317
47 93 51 109 61 221 6 64 7 66 43 84 52 26 194 31 307 11 182 -31 407 -109
714 -245 287 -128 406 -166 615 -197 148 -22 386 -15 501 15 99 26 210 80 250
121 l30 31 0 626 c0 345 1 619 3 610 4 -22 20 -22 24 0 2 9 3 -265 3 -610 l0
-626 30 -31 c40 -41 151 -95 250 -121 115 -30 353 -37 501 -15 209 31 328 69
615 197 307 136 532 214 714 245 113 20 255 15 307 -11 36 -18 37 -20 43 -84
10 -112 14 -128 61 -221 79 -159 199 -264 358 -317 73 -24 96 -27 226 -27 125
0 160 4 254 27 188 47 327 110 445 202 62 48 250 236 390 390 49 55 132 136
182 180 90 79 123 105 490 395 302 238 502 452 619 664 88 160 184 444 234
688 60 299 80 548 73 911 -7 353 -22 478 -137 1107 -78 430 -86 478 -110 661
-80 627 -26 1047 216 1681 74 194 103 290 138 455 37 174 56 367 56 555 0 422
-91 714 -275 886 -110 103 -182 113 -535 74 -104 -12 -167 -15 -171 -9 -16 23
-31 279 -26 416 10 228 52 381 147 524 53 81 102 138 306 355 209 223 295 345
368 524 97 235 104 474 19 630 -44 80 -129 174 -210 233 -44 31 -211 121 -380
206 -167 83 -305 154 -308 159 -3 4 20 34 50 66 32 33 70 87 90 128 86 174 62
303 -84 459 -101 107 -208 152 -566 237 -325 78 -381 92 -504 132 -68 22 -160
56 -205 75 -68 29 -89 34 -130 29 -131 -15 -315 -142 -649 -450 -134 -123
-167 -151 -154 -128 43 71 987 1815 985 1818 -2 1 -410 -310 -907 -692 -497
-382 -905 -693 -908 -691 -2 3 81 461 186 1018 104 557 189 1014 187 1016 -1
1 -225 -272 -496 -607 -272 -335 -496 -607 -498 -606 -1 2 18 295 43 651 25
356 44 649 43 650 -2 2 -219 -305 -482 -681 -264 -377 -483 -681 -487 -677 -4
5 -25 71 -46 149 l-39 140 42 18 c67 28 129 89 166 164 28 57 33 76 32 142 0
97 -35 180 -104 244 l-48 45 23 21 c36 34 72 110 84 176 26 145 -46 286 -181
354 -34 16 -66 30 -72 30 -6 0 -19 26 -28 58 -37 126 -124 209 -229 218 -33 3
-69 -1 -92 -10z m169 -61 c60 -35 106 -112 119 -199 6 -38 11 -46 29 -46 31 0
117 -43 158 -78 19 -17 47 -59 63 -93 24 -54 27 -71 23 -134 -6 -89 -43 -164
-105 -209 -23 -17 -42 -34 -43 -37 0 -4 12 -10 26 -13 44 -12 129 -105 149
-165 36 -109 4 -244 -73 -312 -34 -30 -111 -73 -118 -66 -2 2 -75 256 -161
565 -86 309 -160 562 -163 562 -3 0 -77 -253 -163 -562 -86 -309 -159 -563
-161 -566 -10 -10 -111 55 -142 91 -62 74 -82 192 -47 293 19 56 105 149 147
160 14 3 26 9 26 13 -1 3 -21 21 -45 38 -30 23 -53 52 -75 97 -29 59 -32 72
-28 138 7 142 101 253 231 274 30 5 37 11 37 30 0 68 61 181 116 215 72 44
128 46 200 4z m208 -1458 c165 -589 302 -1077 305 -1084 6 -11 233 267 1351
1646 140 173 256 308 257 300 2 -8 -80 -453 -181 -989 -101 -536 -182 -976
-181 -978 2 -2 72 50 157 115 525 408 1590 1224 1592 1221 5 -6 -290 -538
-309 -557 -15 -14 -1147 -887 -1652 -1274 -69 -52 -88 -58 -80 -24 3 12 71
373 151 802 81 429 150 800 155 824 9 42 8 43 -9 25 -9 -11 -295 -362 -635
-781 l-618 -763 -53 0 c-104 0 -73 -79 -324 824 -124 443 -227 806 -230 806
-3 0 -106 -363 -230 -806 -252 -903 -221 -824 -324 -824 l-53 0 -618 763
c-340 419 -626 770 -635 781 -17 18 -18 17 -9 -25 5 -24 74 -395 155 -824 80
-429 148 -791 151 -803 4 -18 2 -23 -10 -20 -13 2 -1305 991 -1641 1255 l-99
78 -147 270 c-81 149 -146 272 -144 273 1 2 128 -93 281 -210 153 -118 545
-420 872 -672 326 -251 595 -456 596 -454 1 2 -80 442 -181 978 -101 536 -183
981 -181 989 1 8 362 -430 802 -972 453 -558 802 -981 806 -974 3 7 140 495
305 1084 164 590 301 1073 304 1073 3 0 140 -483 304 -1073z m-1189 343 c242
-346 441 -635 443 -643 3 -13 -74 -302 -85 -320 -3 -4 -109 141 -236 322 -127
182 -232 329 -235 327 -2 -3 6 -142 18 -311 12 -169 20 -308 18 -310 -3 -3
-241 286 -276 334 -8 12 -25 200 -52 587 -22 313 -41 586 -43 607 -1 20 0 37
3 36 3 0 203 -283 445 -629z m2178 24 c-29 -417 -46 -612 -55 -625 -36 -49
-273 -337 -276 -334 -2 2 6 142 18 310 12 169 20 309 18 311 -3 2 -92 -121
-198 -274 -107 -152 -212 -301 -233 -331 l-40 -54 -44 154 c-23 85 -41 163
-40 174 2 11 138 212 303 446 164 234 362 516 439 627 77 110 142 201 145 201
3 1 -14 -272 -37 -605z m-1090 -1121 c109 -390 200 -717 203 -728 5 -20 0 -20
-406 -20 -406 0 -411 0 -406 20 38 148 402 1435 406 1435 3 0 94 -318 203
-707z m-1428 -68 l568 -700 -89 -8 c-169 -14 -440 -49 -603 -78 -91 -15 -167
-27 -168 -25 -5 4 -283 1486 -283 1505 0 8 2 12 4 10 2 -2 259 -319 571 -704z
m2885 -64 c-76 -409 -141 -745 -143 -747 -2 -2 -52 5 -112 16 -156 29 -448 68
-609 83 l-139 12 569 701 c313 386 570 696 572 690 1 -6 -61 -346 -138 -755z
m-4155 -112 c374 -287 719 -552 767 -588 48 -37 87 -68 87 -71 1 -3 -69 -22
-154 -43 -163 -40 -448 -129 -574 -179 -40 -16 -75 -27 -76 -26 -6 6 -797
1462 -803 1477 -3 9 11 3 33 -15 22 -17 346 -267 720 -555z m5345 -166 c-221
-406 -403 -739 -405 -741 -1 -1 -36 10 -76 26 -126 50 -411 139 -574 179 -85
21 -155 40 -154 43 0 7 1603 1238 1607 1235 2 -2 -177 -336 -398 -742z m-6322
246 c119 -51 274 -175 612 -485 166 -153 189 -179 227 -249 24 -43 42 -80 40
-81 -4 -5 -108 86 -322 281 -365 333 -456 405 -628 493 -87 45 -94 51 -74 60
27 14 89 6 145 -19z m7086 20 c23 -11 20 -14 -72 -61 -163 -82 -287 -179 -617
-483 -167 -155 -328 -295 -332 -292 -2 2 16 39 39 81 37 69 63 97 218 240 375
348 536 471 665 512 51 16 68 17 99 3z m-7229 -86 c160 -93 317 -218 650 -518
251 -225 323 -288 406 -353 48 -38 74 -68 98 -112 18 -33 28 -60 23 -60 -30 0
-261 185 -486 390 -509 463 -542 489 -822 647 l-39 21 35 16 c19 8 40 15 45
16 6 0 46 -21 90 -47z m7363 31 l37 -16 -39 -21 c-280 -158 -321 -190 -814
-640 -83 -77 -197 -177 -253 -223 -97 -79 -229 -174 -244 -174 -3 0 8 27 26
60 24 44 50 74 98 112 83 65 155 128 406 353 256 230 401 352 521 437 60 42
205 128 217 128 4 0 24 -7 45 -16z m-8055 -220 c208 -105 354 -222 707 -569
303 -297 396 -383 525 -482 182 -138 335 -223 509 -283 l81 -28 -87 -1 c-136
-1 -268 53 -459 190 -174 124 -259 200 -579 514 -416 408 -594 545 -835 641
l-70 28 40 12 c64 20 91 16 168 -22z m8782 22 l40 -12 -70 -28 c-241 -96 -420
-233 -835 -641 -320 -314 -404 -389 -579 -514 -191 -137 -323 -191 -459 -190
l-87 1 81 28 c174 60 327 145 509 283 127 98 221 184 525 482 350 344 474 445
685 557 94 50 122 55 190 34z m-8995 -86 c140 -49 298 -141 465 -274 55 -44
228 -206 385 -361 400 -394 543 -511 745 -611 l109 -54 -70 0 c-59 0 -81 5
-142 35 -162 77 -293 186 -647 535 -295 290 -379 367 -501 457 -207 152 -422
243 -578 243 -68 0 -66 8 14 39 66 25 126 23 220 -9z m9257 9 c83 -31 86 -39
17 -39 -156 0 -370 -90 -578 -244 -122 -89 -206 -166 -501 -456 -354 -349
-485 -457 -650 -536 -58 -29 -81 -34 -139 -34 l-70 0 109 54 c202 100 344 216
745 611 157 155 330 317 385 361 171 135 332 230 465 272 36 12 72 23 80 26
33 10 82 5 137 -15z m-9589 -123 c-53 -41 -104 -113 -119 -170 -27 -101 15
-226 106 -316 78 -78 155 -125 310 -185 230 -90 370 -197 437 -332 27 -55 33
-80 36 -152 l4 -87 -43 -37 c-46 -40 -58 -42 -38 -5 7 13 13 56 13 98 1 66 -4
85 -32 142 -61 125 -204 231 -412 308 -237 87 -398 226 -445 383 -46 156 15
307 150 368 68 31 84 23 33 -15z m315 -5 c4 -5 -12 -11 -36 -14 -61 -9 -147
-43 -179 -72 -109 -95 -105 -213 10 -316 57 -52 119 -84 259 -137 314 -119
514 -323 529 -537 4 -57 3 -61 -26 -83 l-30 -24 0 44 c0 103 -49 207 -144 307
-97 101 -219 174 -411 245 -144 53 -254 135 -311 232 -24 41 -29 60 -29 114 1
73 16 109 72 171 37 41 69 62 137 90 36 14 46 15 95 2 31 -8 60 -18 64 -22z
m9307 -17 c86 -53 134 -133 135 -224 0 -54 -5 -73 -29 -114 -57 -97 -167 -179
-311 -232 -238 -88 -388 -190 -481 -328 -41 -60 -74 -160 -74 -223 l0 -45 -30
24 c-29 22 -30 26 -26 83 15 214 215 418 529 537 140 53 202 85 259 137 82 73
108 155 74 234 -31 74 -133 139 -243 154 -53 7 -46 17 27 36 61 15 96 7 170
-39z m116 37 c63 -29 109 -75 139 -142 24 -55 27 -71 23 -138 -12 -202 -171
-365 -460 -472 -206 -76 -349 -183 -410 -307 -29 -58 -33 -76 -33 -142 1 -41
7 -86 14 -98 20 -37 8 -35 -38 5 l-43 37 4 87 c3 72 9 97 36 152 67 136 202
238 442 334 163 66 234 109 308 186 152 162 146 359 -17 483 -50 39 -33 46 35
15z m-4511 -211 c545 -25 1021 -93 1475 -211 158 -40 436 -130 523 -168 l48
-21 -26 -49 c-13 -27 -29 -52 -34 -55 -5 -3 -53 10 -107 30 -794 291 -1931
407 -3029 308 -542 -48 -1066 -157 -1468 -304 -60 -22 -113 -37 -118 -34 -5 3
-21 28 -34 55 l-26 49 48 21 c26 12 120 45 208 75 704 235 1624 345 2540 304z
m185 -190 c675 -49 1263 -163 1703 -332 l77 -30 -51 -96 c-29 -53 -55 -101
-59 -105 -4 -5 -72 12 -150 37 -591 191 -1387 288 -2230 273 -777 -14 -1433
-108 -1948 -278 -68 -23 -127 -37 -131 -33 -5 5 -31 53 -60 106 l-51 96 77 30
c128 49 358 119 513 156 453 108 840 159 1455 190 124 6 705 -3 855 -14z
m-175 -300 c494 -22 906 -74 1315 -165 151 -34 477 -129 493 -144 4 -4 -14
-48 -41 -97 l-49 -89 -2103 0 -2103 0 -49 89 c-27 49 -46 92 -41 96 10 10 232
79 363 114 587 155 1445 231 2215 196z m-5328 -155 c114 -38 205 -82 343 -165
242 -146 329 -182 380 -156 27 13 30 13 36 -6 9 -31 -26 -59 -80 -65 -63 -8
-141 23 -296 117 -290 175 -398 220 -610 254 l-75 12 50 27 c62 34 106 31 252
-18z m10136 18 l52 -27 -80 -12 c-194 -31 -323 -84 -576 -237 -185 -111 -260
-142 -325 -134 -54 6 -89 34 -80 65 6 19 9 19 36 6 51 -26 138 10 380 156 169
102 283 153 425 190 93 25 107 24 168 -7z m-8590 -119 c67 -58 169 -137 226
-175 l104 -69 -431 0 c-238 0 -432 2 -432 4 0 12 389 345 403 346 4 0 63 -48
130 -106z m7017 35 c106 -89 310 -270 310 -275 0 -2 -194 -4 -432 -4 l-431 0
104 69 c57 38 158 117 224 174 66 58 125 106 130 106 6 0 48 -31 95 -70z
m-8797 -24 c110 -16 246 -59 339 -106 34 -17 139 -77 233 -133 253 -152 318
-173 381 -124 l28 22 -20 -33 c-43 -76 -126 -91 -229 -42 -33 15 -131 72 -218
125 -226 136 -315 176 -480 212 -84 19 -282 22 -347 6 -24 -6 -46 -9 -48 -7
-2 2 32 24 75 49 90 53 121 56 286 31z m10620 -20 c70 -39 113 -70 85 -61 -60
19 -192 27 -279 17 -203 -23 -327 -71 -581 -224 -97 -59 -201 -119 -230 -132
-96 -45 -186 -26 -224 46 l-16 32 27 -21 c62 -49 128 -27 380 124 94 56 199
116 233 133 137 69 330 118 475 120 61 1 76 -3 130 -34z m-10683 -89 c0 -3
-23 -17 -52 -31 -112 -56 -227 -164 -273 -256 -65 -127 -45 -298 57 -506 56
-112 140 -220 318 -408 314 -330 403 -477 461 -757 27 -133 36 -371 20 -538
-17 -172 -16 -170 -58 -170 l-36 0 7 48 c50 375 16 690 -98 921 -66 133 -140
226 -389 489 -158 167 -236 270 -297 397 -88 179 -117 342 -86 465 29 114 105
220 216 302 63 47 67 48 138 48 39 0 72 -2 72 -4z m10685 -41 c111 -79 191
-190 221 -305 48 -187 -49 -471 -240 -705 -23 -27 -92 -104 -155 -170 -247
-259 -344 -386 -400 -524 -97 -233 -121 -520 -75 -873 l7 -48 -36 0 c-41 0
-40 -4 -57 155 -22 206 -9 448 35 621 62 243 147 376 445 689 179 188 263 297
318 408 101 208 120 367 58 503 -36 79 -157 197 -253 247 -40 21 -73 40 -73
43 0 2 32 4 71 4 69 0 74 -2 134 -45z m-11039 -46 c-76 -82 -131 -184 -147
-274 -33 -180 56 -463 211 -670 33 -44 135 -160 227 -258 196 -210 259 -286
319 -387 110 -186 159 -464 135 -765 -17 -202 -19 -215 -45 -215 -47 0 -49 8
-36 135 15 145 7 443 -14 535 -34 149 -88 266 -172 376 -30 39 -130 152 -222
250 -248 266 -301 336 -378 498 -143 304 -137 597 17 746 32 31 147 100 167
100 2 0 -26 -32 -62 -71z m11221 25 c253 -147 256 -561 8 -946 -63 -97 -101
-142 -288 -342 -177 -188 -259 -288 -305 -368 -43 -76 -87 -208 -106 -317 -19
-112 -21 -366 -5 -508 12 -103 9 -113 -37 -113 -25 0 -28 11 -45 210 -23 277
17 543 111 730 43 86 135 203 276 354 200 213 271 295 325 375 138 204 211
459 180 626 -16 90 -71 192 -147 274 -71 76 -64 82 33 25z m-10282 -197 c-14
-49 -17 -147 -5 -198 28 -119 110 -264 278 -487 143 -190 208 -283 277 -397
l65 -108 0 -90 0 -91 -39 80 c-73 152 -178 313 -371 574 -197 266 -268 399
-292 541 -11 69 -4 136 21 202 11 27 11 27 42 12 25 -13 30 -21 24 -38z m9392
-31 c14 -57 15 -79 5 -140 -23 -145 -96 -281 -306 -564 -160 -217 -265 -378
-338 -519 l-58 -113 0 89 0 88 68 112 c37 62 110 170 162 242 244 332 283 390
329 484 70 142 84 229 56 347 -6 22 -2 29 21 41 16 9 32 12 36 8 4 -4 15 -37
25 -75z m-8767 -378 c0 -253 -4 -428 -9 -423 -5 6 -70 92 -145 192 -230 308
-295 421 -296 511 0 23 2 42 5 42 2 0 34 -10 70 -22 93 -30 147 -17 269 67 50
35 94 64 99 64 4 1 7 -193 7 -431z m8163 368 c125 -85 179 -98 272 -68 36 12
68 22 70 22 3 0 5 -19 5 -42 -1 -90 -64 -199 -294 -508 -76 -102 -142 -189
-147 -195 -5 -5 -9 170 -9 423 0 238 2 432 4 432 3 0 47 -29 99 -64z m-8683 0
c21 -12 24 -21 26 -72 2 -112 65 -230 259 -490 238 -318 225 -297 225 -375 l0
-69 -85 126 c-47 69 -133 188 -190 264 -229 304 -305 465 -281 594 8 40 10 41
46 22z m9146 -22 c24 -129 -47 -279 -279 -591 -77 -103 -171 -235 -209 -291
l-68 -104 0 69 c0 79 -3 73 168 300 149 199 210 287 251 364 49 92 75 179 67
224 -6 30 -3 36 21 49 39 21 41 20 49 -20z m-4166 -1204 c53 -10 114 -23 137
-29 l41 -11 7 -98 7 -97 -34 -36 -34 -36 -112 -6 c-224 -13 -528 -71 -715
-136 l-58 -20 -11 27 c-17 41 -21 142 -9 189 36 132 220 247 435 272 92 11
226 3 346 -19z m790 4 c164 -29 270 -103 301 -211 14 -48 19 -176 8 -187 -3
-4 -48 5 -100 19 -52 13 -139 31 -194 39 -88 13 -352 35 -427 36 -18 0 -29 7
-33 20 -3 11 -17 23 -30 26 -22 5 -24 12 -30 98 -10 128 -10 127 60 148 127
39 270 43 445 12z m-546 -71 c15 -127 17 -211 7 -217 -18 -11 -28 31 -35 152
-6 95 -5 112 8 112 9 0 16 -15 20 -47z m20 -280 c51 -47 68 -73 48 -73 -15 0
-142 122 -136 131 7 12 21 3 88 -58z m56 52 c0 -16 -34 -38 -44 -28 -7 7 23
43 36 43 4 0 8 -7 8 -15z m231 -49 c251 -11 639 -96 582 -128 -4 -3 -51 7
-104 23 -156 45 -326 70 -522 76 -98 3 -180 10 -183 15 -12 18 9 26 59 23 28
-3 104 -7 168 -9z m-373 -8 c-3 -9 -43 -15 -126 -20 -246 -13 -466 -51 -663
-114 -145 -45 -173 -51 -167 -33 9 26 327 110 548 144 184 29 208 31 323 33
67 2 88 -1 85 -10z m42 -38 c0 -12 -40 -33 -47 -26 -9 8 28 47 38 40 5 -3 9
-9 9 -14z m-68 -35 c11 -14 25 -25 33 -25 9 0 15 -25 21 -87 7 -94 -2 -772
-13 -862 l-6 -54 -71 -33 c-150 -69 -356 -99 -504 -74 -269 45 -425 272 -425
620 -1 129 10 207 44 315 l19 62 77 26 c186 61 417 108 623 126 169 15 180 14
202 -14z m602 0 c126 -19 331 -69 352 -86 8 -6 26 -48 41 -93 22 -70 26 -98
27 -206 0 -153 -16 -225 -85 -367 -106 -221 -275 -313 -549 -299 -101 5 -232
25 -244 37 -2 2 0 137 6 299 5 162 7 383 4 491 -6 193 -5 197 15 202 11 3 23
16 26 28 6 22 7 22 153 16 80 -3 195 -13 254 -22z m-487 -386 c3 -428 -5 -650
-23 -656 -9 -3 -11 133 -8 519 3 288 4 527 4 531 0 5 6 7 13 5 9 -4 13 -94 14
-399z m-3245 26 l21 -40 13 30 c7 17 16 39 19 50 6 17 11 12 32 -32 48 -104
39 -232 -25 -343 -34 -59 -4 -36 37 29 33 52 66 161 56 190 -3 12 4 33 20 57
14 20 28 55 32 77 l6 40 21 -39 c41 -76 18 -300 -34 -324 -79 -37 -116 -58
-128 -77 -13 -21 -11 -21 44 7 74 38 140 50 270 50 l104 0 -35 -49 c-47 -66
-92 -109 -137 -132 -46 -23 -72 -25 -38 -2 42 27 91 76 106 105 14 26 13 28
-12 34 -40 10 -140 -4 -194 -27 -82 -35 -79 -50 5 -23 42 13 97 24 123 24 l47
-1 -64 -59 c-39 -37 -79 -65 -104 -72 -32 -10 -36 -13 -21 -19 28 -11 94 -10
139 2 30 8 59 31 120 94 95 98 116 131 95 146 -8 5 -23 7 -33 5 -14 -3 -17 0
-12 12 3 9 11 40 18 67 10 46 41 94 60 95 4 0 7 -23 7 -52 l0 -52 28 27 c15
15 31 27 35 27 12 0 -5 -82 -24 -121 -10 -20 -39 -55 -66 -78 -41 -37 -43 -41
-18 -31 47 18 91 56 109 94 25 52 40 57 32 10 -17 -98 -93 -183 -194 -216 -35
-12 -41 -16 -22 -17 73 -3 164 57 206 134 35 66 46 29 18 -64 -33 -112 -130
-167 -281 -159 -56 3 -79 1 -67 -5 25 -14 115 -37 147 -37 35 0 34 -11 -3 -54
-49 -55 -111 -79 -207 -80 -103 -1 -81 -19 24 -20 71 -1 73 -2 53 -18 -25 -20
-82 -38 -122 -38 -14 0 -54 9 -87 19 -33 10 -58 14 -55 9 9 -15 86 -48 112
-48 12 0 22 -4 22 -8 0 -19 -56 -37 -109 -35 -49 2 -54 0 -38 -12 10 -7 41
-19 69 -26 l51 -12 -28 -14 c-15 -8 -54 -15 -86 -15 -65 0 -68 -10 -10 -37
l36 -16 -67 -3 c-43 -2 -79 2 -103 13 -47 19 -48 19 -34 -3 9 -15 6 -35 -15
-98 -15 -43 -33 -90 -41 -104 -14 -23 -15 -20 -10 45 3 39 2 86 -3 105 -7 31
-9 26 -15 -47 -14 -162 -93 -363 -178 -455 l-40 -43 22 45 c44 91 70 187 84
315 8 72 19 145 25 164 5 19 8 36 6 39 -9 9 -46 -114 -74 -245 -34 -155 -77
-271 -122 -323 l-29 -35 20 65 c13 42 24 118 30 215 13 203 33 302 82 400 l19
40 -25 -23 c-56 -52 -99 -209 -121 -434 -15 -156 -33 -214 -80 -258 l-27 -25
12 30 c7 18 15 120 20 255 8 258 16 294 84 396 25 37 45 68 45 70 0 2 -24 -4
-52 -12 -53 -15 -154 -62 -235 -108 -50 -28 -73 -25 -103 16 -35 48 -23 66 96
138 96 58 112 65 170 68 69 5 75 12 44 52 l-19 25 -54 -27 c-31 -15 -112 -63
-181 -107 -68 -45 -132 -81 -140 -81 -28 0 -64 22 -75 47 -47 103 58 232 202
249 43 5 61 12 68 27 8 15 7 23 -4 34 -13 13 -21 13 -69 -1 -30 -8 -71 -27
-91 -41 l-37 -25 14 28 c30 57 97 102 289 195 230 111 287 147 365 226 78 81
115 156 116 238 1 35 4 63 7 63 14 0 60 -61 83 -110 30 -64 34 -143 11 -211
l-15 -44 25 30 c30 36 40 80 32 145 -6 46 -35 117 -62 150 -7 9 -10 32 -7 59
l4 43 24 -28 c14 -16 34 -47 46 -69z m377 -129 c0 -50 -6 -109 -13 -131 -11
-40 -12 -40 -65 -43 -48 -3 -53 -1 -46 15 11 25 35 133 35 159 0 11 9 29 20
39 11 10 25 33 32 52 11 31 14 33 25 17 9 -12 13 -50 12 -108z m3941 73 c104
-40 187 -89 169 -99 -7 -5 -11 -11 -9 -13 3 -2 20 -14 37 -26 34 -23 85 -91
97 -127 6 -18 3 -20 -24 -16 l-30 4 44 -44 c42 -42 56 -72 81 -180 6 -23 4
-26 -14 -21 -29 8 -26 -11 4 -25 31 -14 65 -68 65 -104 0 -28 -13 -37 -25 -18
-3 6 -13 10 -21 10 -13 0 -12 -5 4 -27 36 -52 70 -129 80 -181 12 -65 33 -96
178 -258 122 -137 225 -282 339 -479 57 -98 92 -142 190 -245 139 -145 212
-249 301 -434 80 -166 141 -332 209 -566 60 -207 85 -327 85 -404 0 -28 6 -76
14 -106 8 -30 13 -57 11 -58 -7 -8 -69 86 -96 146 -16 34 -40 108 -54 165 -14
56 -29 116 -33 132 l-8 30 -26 -50 -26 -50 -16 55 c-9 30 -20 93 -23 139 l-6
84 -21 -39 -20 -39 -12 55 c-7 30 -16 84 -20 120 -9 93 -17 100 -38 33 l-18
-58 -20 50 c-11 27 -26 99 -34 160 -34 258 -71 390 -137 488 -30 44 -232 215
-243 205 -2 -3 5 -25 15 -49 31 -69 68 -208 76 -280 6 -59 -8 -205 -21 -218
-2 -3 -18 11 -34 30 l-29 34 13 -45 c19 -64 29 -181 21 -232 l-8 -43 -13 35
c-12 33 -13 30 -13 -57 -1 -91 -16 -193 -30 -193 -3 0 -14 12 -24 28 -17 27
-17 26 -11 -44 4 -40 3 -85 0 -100 l-8 -29 -13 25 c-14 24 -14 23 -15 -23 0
-93 -55 -307 -102 -401 -19 -36 -19 -47 -9 -150 6 -61 10 -187 9 -281 -3 -153
-1 -178 20 -248 19 -63 21 -84 13 -108 -6 -17 -67 -129 -136 -250 -219 -383
-288 -530 -355 -764 -18 -60 -38 -115 -44 -121 -6 -6 -33 -19 -61 -29 -94 -33
-208 -99 -265 -152 l-58 -53 -221 0 c-175 0 -221 3 -221 13 0 22 55 100 98
139 55 49 111 77 183 90 72 12 102 35 136 101 15 31 70 98 132 162 120 125
193 229 275 393 90 179 116 269 116 395 0 58 -9 176 -20 262 l-21 155 -78 168
c-86 183 -122 286 -206 587 -64 226 -133 445 -142 445 -3 0 -2 -10 1 -22 24
-83 125 -493 122 -495 -5 -6 -85 95 -142 179 -230 342 -315 803 -243 1324 12
83 15 91 48 119 126 106 209 236 265 413 94 299 80 666 -33 917 -29 64 -31 75
-25 137 8 78 -4 76 124 27z m-3853 -81 c-8 -128 -21 -168 -54 -168 -23 0 -24
3 -18 28 5 15 11 59 14 97 6 67 34 135 55 135 5 0 6 -41 3 -92z m1677 -203 c3
-8 -8 -51 -23 -97 -38 -113 -77 -279 -97 -418 -19 -132 -15 -290 11 -410 47
-224 192 -374 411 -426 90 -21 250 -14 354 16 238 69 414 82 658 50 152 -20
185 -22 265 -12 51 6 114 19 140 28 26 9 49 15 51 13 2 -2 -3 -42 -10 -89 -21
-130 -29 -427 -15 -555 24 -218 72 -395 157 -574 41 -86 51 -117 42 -123 -29
-18 -180 -68 -251 -82 -42 -9 -115 -16 -162 -16 -82 0 -85 -1 -75 -19 16 -30
14 -31 -52 -31 -59 0 -100 7 -158 25 -23 7 -23 5 9 -29 19 -20 32 -38 29 -41
-15 -16 -189 -16 -280 -1 -120 20 -114 20 -96 -1 40 -47 44 -46 -163 -40 -190
6 -291 20 -394 53 -65 21 -69 26 -56 66 21 64 41 204 41 293 0 50 7 117 15
150 35 144 12 332 -57 473 -40 82 -52 88 -21 11 50 -123 66 -212 61 -343 -4
-136 -13 -165 -35 -122 -20 38 -24 29 -12 -24 14 -58 7 -318 -9 -345 -10 -18
-11 -18 -12 10 0 54 -63 255 -76 243 -1 -2 6 -35 18 -73 28 -99 36 -341 14
-444 -16 -78 -61 -184 -99 -236 -13 -16 -31 -57 -41 -90 -23 -76 -65 -159
-109 -216 -21 -28 -36 -62 -41 -89 -11 -75 -46 -174 -82 -236 -78 -135 -96
-181 -115 -307 -32 -214 -40 -357 -33 -618 l7 -247 -61 -31 c-71 -36 -179
-134 -237 -215 l-40 -55 -237 -1 -238 0 0 23 c1 37 35 100 72 133 20 17 70 50
111 73 88 49 140 104 156 166 9 36 28 59 113 140 57 53 106 102 110 109 12 22
26 133 48 370 24 274 20 321 -40 442 l-41 81 12 94 c12 101 7 270 -11 332 -10
32 -8 46 13 100 14 34 28 82 31 107 l6 45 -23 -61 c-24 -63 -71 -149 -86 -158
-5 -3 -11 18 -14 47 -4 41 -1 58 14 79 17 23 49 100 49 116 0 3 -13 -14 -28
-39 -27 -41 -100 -119 -112 -119 -12 0 14 148 36 206 25 64 43 168 44 242 0
70 -15 48 -27 -40 -7 -46 -19 -105 -27 -133 -15 -48 -73 -151 -81 -143 -2 2 1
24 6 48 16 70 -8 196 -56 292 -22 44 -23 49 -9 100 17 65 17 228 0 283 -11 36
-12 31 -8 -60 8 -176 -28 -281 -187 -544 -102 -167 -163 -290 -182 -365 -10
-42 -13 -46 -23 -30 -6 11 -13 57 -16 103 l-5 85 -34 -84 c-19 -45 -37 -99
-41 -119 l-6 -36 -16 30 c-9 17 -21 57 -28 90 -17 83 -30 102 -23 35 10 -99
-33 -216 -101 -279 l-27 -25 16 43 c21 61 19 120 -7 188 -16 41 -23 79 -22
131 0 54 -3 68 -11 55 -5 -10 -10 -65 -11 -123 -1 -112 -5 -138 -37 -213 l-20
-48 -27 48 c-15 27 -99 120 -187 208 -232 234 -291 332 -302 505 l-6 95 -24
-60 c-17 -43 -25 -90 -30 -165 l-6 -105 -33 54 c-88 141 -129 335 -104 486 5
33 8 62 7 63 -8 8 -56 -101 -74 -169 -11 -39 -22 -74 -24 -76 -7 -6 -27 143
-27 195 0 26 14 103 30 172 16 69 29 143 29 165 l-1 40 -10 -35 c-5 -19 -18
-64 -29 -100 -17 -62 -97 -204 -84 -150 27 112 30 221 9 298 -9 30 -15 28 -43
-18 -14 -22 -26 -38 -28 -37 -1 2 2 30 7 63 5 32 14 147 19 254 8 154 15 216
36 293 28 108 35 126 89 207 20 30 50 87 66 128 17 40 44 92 61 115 16 24 43
81 59 127 l30 85 45 -3 c49 -3 150 21 161 39 4 6 1 15 -7 20 -10 6 -5 11 16
18 46 17 79 38 94 60 12 19 11 21 -10 21 l-24 0 25 20 c14 11 44 29 68 40 54
24 186 142 219 194 20 30 22 40 12 47 -10 6 -9 9 6 14 60 20 78 31 109 65 19
21 40 54 47 74 16 45 35 46 91 3 67 -51 155 -207 175 -312 6 -28 5 -29 -12
-15 -17 13 -18 13 -12 0 48 -114 59 -150 64 -206 6 -65 6 -66 -15 -55 -21 11
-21 11 -6 -24 19 -46 40 -144 49 -223 6 -61 5 -63 -14 -53 -30 17 -31 15 -31
-46 0 -208 -46 -484 -105 -635 -6 -15 -1 -18 28 -18 34 0 36 2 42 38 64 397
187 731 363 983 99 140 301 338 437 427 61 40 119 78 130 86 11 7 31 44 44 82
37 109 106 244 158 309 l48 60 11 -113 c7 -62 15 -119 18 -127z m-3695 -13
c-34 -37 -66 -77 -72 -89 -13 -29 -18 -29 -47 2 l-23 25 28 40 c15 22 60 71
99 107 l71 68 3 -43 c3 -40 -1 -47 -59 -110z m8252 52 c30 -33 64 -72 74 -87
17 -27 17 -28 -5 -52 -29 -31 -34 -31 -47 -2 -6 12 -38 52 -72 89 -54 59 -61
71 -61 108 l0 41 28 -19 c15 -11 52 -46 83 -78z m-2492 9 c140 -383 53 -948
-181 -1170 -131 -123 -299 -163 -533 -127 -141 22 -353 24 -465 5 -41 -7 -138
-28 -214 -47 -270 -66 -447 -36 -595 101 -188 175 -220 526 -91 1003 12 45 25
82 29 82 3 -1 25 -40 48 -88 64 -136 154 -216 292 -264 57 -20 86 -23 216 -23
169 0 258 18 392 80 55 25 82 32 107 28 18 -3 36 -1 39 5 4 6 39 2 94 -9 112
-24 314 -26 398 -4 170 44 281 135 358 295 25 52 52 116 59 143 7 26 15 47 19
47 4 0 16 -26 28 -57z m-7094 -57 c-68 -17 -90 -30 -159 -95 -183 -174 -261
-420 -260 -821 1 -209 11 -323 50 -521 31 -159 55 -239 142 -469 119 -313 182
-540 224 -804 20 -122 23 -178 23 -411 0 -350 -17 -496 -130 -1115 -83 -456
-111 -630 -130 -815 -64 -611 12 -1249 204 -1715 83 -202 186 -355 346 -515
110 -109 202 -187 450 -380 303 -237 351 -279 515 -449 412 -427 460 -467 642
-536 189 -71 402 -98 540 -69 143 31 322 152 404 273 38 56 42 56 18 1 -69
-167 -216 -297 -385 -342 -85 -22 -266 -22 -379 2 -92 19 -260 74 -325 107
-122 63 -262 187 -489 437 -134 148 -271 271 -481 435 -507 396 -636 517 -785
739 -228 341 -370 955 -370 1597 0 318 30 565 141 1173 121 664 143 850 143
1177 0 191 -4 261 -22 375 -44 282 -105 502 -227 819 -42 110 -89 250 -105
312 -106 411 -118 865 -30 1184 31 112 102 247 166 319 83 91 142 120 249 119
l70 0 -50 -12z m11020 -11 c22 -10 69 -49 106 -85 216 -218 294 -717 198
-1280 -32 -190 -67 -314 -154 -545 -263 -696 -308 -1120 -195 -1859 11 -72 52
-304 90 -516 124 -684 145 -879 137 -1260 -8 -341 -35 -569 -103 -848 -87
-356 -203 -603 -387 -820 -122 -145 -250 -256 -662 -578 -210 -164 -347 -287
-481 -435 -227 -250 -367 -374 -489 -437 -65 -33 -233 -88 -325 -107 -113 -24
-294 -24 -379 -2 -167 45 -312 171 -381 333 -27 63 -25 65 11 11 56 -85 190
-192 302 -241 159 -70 397 -59 635 30 174 66 264 132 462 346 292 312 355 369
777 700 463 362 622 556 758 922 111 300 175 671 191 1101 12 329 -20 619
-141 1287 -125 689 -152 926 -142 1263 10 342 73 651 209 1015 186 500 231
712 231 1095 1 407 -76 652 -259 826 -68 64 -84 74 -156 94 l-53 15 80 -3 c53
-2 93 -9 120 -22z m-10746 4 c14 0 -11 -9 -55 -19 -111 -25 -197 -71 -266
-141 -98 -100 -167 -239 -204 -409 -16 -71 -19 -128 -19 -345 1 -222 4 -279
23 -389 32 -186 66 -310 129 -475 294 -771 345 -1214 232 -1996 -11 -77 -51
-310 -89 -518 -118 -644 -141 -837 -141 -1179 1 -634 132 -1180 362 -1508 76
-109 290 -317 473 -460 492 -386 549 -437 802 -711 231 -251 318 -314 514
-377 119 -38 243 -56 331 -49 176 15 373 151 508 352 l54 80 -7 -65 c-8 -77
-42 -132 -138 -228 -79 -77 -116 -105 -199 -147 -112 -57 -166 -68 -303 -62
-129 6 -222 26 -356 78 -148 57 -258 148 -502 416 -150 165 -271 276 -466 431
-419 332 -495 395 -587 487 -219 219 -334 421 -431 759 -121 420 -162 964
-109 1434 22 196 49 366 120 752 107 580 133 781 142 1080 13 454 -60 836
-260 1350 -77 199 -112 321 -142 496 -75 437 -50 815 70 1054 104 207 279 331
444 314 24 -2 56 -4 70 -5z m10547 -20 c195 -73 337 -300 385 -614 17 -112 17
-435 0 -565 -35 -261 -75 -417 -169 -660 -198 -514 -271 -890 -259 -1340 9
-315 32 -493 152 -1147 124 -676 151 -974 125 -1378 -28 -433 -120 -825 -260
-1110 -119 -245 -280 -416 -696 -740 -312 -243 -405 -323 -554 -479 -440 -459
-486 -493 -755 -566 -101 -28 -290 -38 -366 -20 -121 28 -281 132 -380 246
-71 82 -87 114 -94 184 l-7 65 53 -79 c133 -200 332 -338 508 -353 88 -7 212
11 331 49 196 63 283 126 513 376 257 279 308 324 803 712 185 145 406 362
482 473 151 219 268 577 323 978 15 111 22 233 26 439 8 404 -7 537 -137 1255
-118 654 -142 854 -143 1185 0 422 65 738 259 1257 108 287 137 402 169 658
20 160 20 439 -1 569 -31 197 -107 360 -221 474 -63 64 -166 115 -266 134
l-72 13 45 6 c63 9 146 0 206 -22z m-9458 -178 c-30 -58 -33 -73 -33 -150 0
-68 5 -98 24 -144 21 -51 23 -69 19 -157 -4 -86 -9 -108 -38 -166 -40 -82 -98
-124 -169 -124 -54 0 -112 31 -141 76 -28 42 -25 52 8 22 86 -80 177 -59 235
54 37 71 49 205 24 254 -8 16 -21 57 -28 90 -11 56 -11 67 10 132 14 43 21 81
17 97 -8 30 2 51 58 125 l41 55 3 -49 c3 -40 -3 -62 -30 -115z m8198 52 c18
-29 23 -49 18 -67 -4 -17 2 -53 17 -98 21 -65 21 -76 10 -132 -7 -33 -20 -74
-28 -90 -25 -49 -13 -183 24 -254 58 -113 149 -134 236 -54 33 31 35 20 5 -24
-50 -73 -146 -95 -223 -50 -114 67 -158 266 -99 443 35 104 31 187 -15 275
-23 45 -31 74 -31 112 l1 51 30 -35 c16 -19 41 -54 55 -77z m-8830 25 c-130
-132 -170 -242 -170 -463 0 -254 44 -437 204 -850 167 -429 256 -775 307
-1185 13 -110 18 -219 18 -450 0 -354 -3 -387 -101 -971 -104 -629 -133 -883
-141 -1266 -10 -461 34 -777 147 -1066 67 -171 130 -267 260 -397 116 -116
153 -143 391 -284 202 -120 332 -235 491 -437 139 -176 241 -267 371 -330 144
-69 284 -75 399 -15 28 14 51 26 52 26 1 0 0 -16 -2 -35 -5 -40 -25 -56 -113
-86 -90 -30 -216 -24 -314 16 -151 60 -280 168 -444 370 -178 221 -285 316
-491 436 -263 154 -387 253 -494 396 -328 435 -410 1158 -256 2234 16 113 54
351 84 530 80 477 90 579 90 879 -1 560 -96 1027 -332 1630 -156 401 -209 638
-199 895 8 212 51 318 178 443 47 46 59 52 95 52 l42 0 -72 -72z m204 44
c-107 -81 -186 -201 -216 -328 -21 -91 -21 -271 1 -399 25 -148 74 -309 169
-552 228 -591 326 -1036 345 -1563 13 -366 -2 -538 -100 -1120 -156 -929 -185
-1437 -109 -1896 79 -478 247 -738 612 -945 252 -143 421 -285 598 -504 195
-242 335 -343 486 -353 65 -4 79 -2 136 26 35 16 78 44 97 61 18 18 35 31 36
29 2 -2 -2 -27 -7 -57 -10 -48 -16 -56 -57 -82 -59 -38 -101 -49 -184 -49
-183 0 -338 103 -556 369 -190 231 -308 335 -521 458 -300 174 -452 318 -557
528 -76 151 -138 365 -168 585 -22 156 -31 573 -16 786 18 266 57 567 126 984
105 630 109 668 110 1020 0 184 -5 349 -13 415 -52 447 -149 828 -331 1293
-200 514 -240 851 -128 1085 58 123 178 237 246 237 l36 -1 -35 -27z m9076 0
c63 -46 131 -129 169 -206 115 -231 75 -572 -126 -1088 -258 -661 -361 -1194
-346 -1798 7 -270 18 -369 102 -872 117 -698 140 -922 140 -1358 0 -362 -12
-491 -66 -711 -66 -273 -158 -448 -319 -609 -105 -106 -161 -146 -370 -269
-206 -121 -326 -225 -489 -426 -227 -280 -371 -382 -556 -393 -93 -5 -142 6
-206 47 -41 26 -47 34 -57 82 -5 30 -9 55 -7 57 1 2 18 -11 36 -29 19 -17 62
-45 97 -61 57 -28 71 -30 136 -26 151 10 291 111 486 353 177 219 346 361 598
504 128 73 235 154 312 238 319 346 412 1021 280 2033 -12 85 -49 328 -85 540
-35 212 -71 441 -79 510 -50 392 -36 833 40 1250 55 302 138 583 276 940 121
312 171 495 187 681 9 106 1 235 -19 309 -28 107 -113 228 -210 302 l-35 27
36 1 c24 0 49 -9 75 -28z m193 -24 c72 -71 127 -157 154 -243 19 -62 22 -91
21 -250 0 -157 -4 -197 -27 -309 -33 -155 -85 -319 -179 -561 -197 -511 -285
-892 -319 -1385 -22 -322 -2 -568 86 -1096 66 -387 109 -686 129 -894 81 -812
1 -1408 -242 -1790 -118 -187 -250 -302 -552 -479 -200 -117 -317 -220 -470
-411 -113 -141 -171 -202 -259 -272 -178 -142 -363 -191 -522 -138 -86 29
-106 45 -111 85 -2 19 -3 35 -2 35 1 0 24 -12 52 -26 185 -96 427 -23 640 194
29 29 94 106 146 170 159 198 300 321 506 437 226 129 405 281 499 425 96 148
172 346 216 564 43 215 50 312 50 656 -1 437 -22 642 -140 1350 -97 585 -100
617 -100 970 0 326 11 459 61 730 53 295 149 618 292 981 131 333 193 624 177
837 -13 181 -57 284 -171 400 l-72 72 42 0 c36 0 48 -6 95 -52z m-9047 3 c56
-36 93 -104 85 -157 -11 -64 -49 -125 -138 -220 -48 -52 -99 -113 -113 -137
-54 -91 -52 -192 4 -281 26 -41 27 -46 11 -46 -83 0 -126 63 -126 185 0 112
34 180 155 310 138 148 161 212 98 274 -17 17 -35 31 -40 31 -4 0 -5 -20 -2
-44 9 -65 -20 -116 -136 -241 -76 -82 -104 -120 -121 -163 -26 -69 -35 -163
-21 -215 10 -34 9 -37 -4 -26 -37 30 -58 93 -59 169 0 102 29 158 141 274 47
48 94 102 105 120 29 47 25 92 -12 126 l-30 29 38 20 c56 29 110 27 165 -8z
m8719 9 l40 -21 -30 -28 c-61 -57 -40 -112 95 -250 110 -112 139 -169 139
-271 -1 -76 -22 -139 -59 -169 -13 -11 -14 -9 -6 21 22 74 3 193 -43 268 -12
19 -61 77 -108 127 -103 110 -134 165 -126 229 2 24 1 44 -2 44 -4 0 -22 -14
-39 -31 -24 -23 -32 -40 -32 -66 0 -55 25 -95 126 -204 125 -135 159 -202 159
-314 0 -122 -43 -185 -126 -185 -16 0 -15 5 11 46 56 89 58 190 4 281 -14 24
-65 85 -113 137 -131 139 -162 216 -121 301 44 92 145 128 231 85z m-8473
-333 c-3 -61 -3 -62 -17 -32 -19 42 -20 173 -1 205 14 24 15 22 18 -43 2 -37
2 -96 0 -130z m8097 113 c7 -51 -9 -155 -26 -165 -5 -4 -9 45 -9 122 1 111 2
126 14 110 8 -10 17 -40 21 -67z m-8286 -220 c54 -158 -17 -308 -137 -285 -51
10 -82 26 -82 45 0 14 8 16 50 12 44 -4 52 -1 78 24 39 39 48 99 25 170 -17
54 -17 54 7 79 13 14 26 25 29 25 4 0 17 -31 30 -70z m8501 45 c24 -25 24 -25
7 -79 -23 -71 -14 -131 25 -170 26 -25 34 -28 78 -24 42 4 50 2 50 -12 0 -19
-35 -38 -88 -45 -117 -18 -184 129 -131 285 13 39 26 70 30 70 3 0 16 -11 29
-25z m-8282 -5705 c43 -120 83 -181 177 -275 94 -94 155 -133 275 -177 l65
-23 1460 -5 c1606 -6 1487 -1 1628 -68 130 -61 242 -171 313 -306 l38 -71 -50
44 c-64 56 -119 88 -202 116 -64 22 -208 45 -279 45 l-33 0 0 -220 c0 -121 -4
-220 -9 -220 -5 0 -51 11 -102 24 -205 52 -487 174 -834 361 -279 150 -531
219 -800 218 -168 0 -277 -23 -400 -83 -142 -69 -234 -174 -276 -313 -20 -63
-21 -83 -15 -214 5 -103 4 -143 -4 -138 -5 3 -55 61 -109 128 -113 139 -254
280 -356 357 -38 28 -134 90 -211 136 -239 141 -341 227 -434 364 -239 352
-304 995 -189 1877 10 83 50 340 88 570 97 585 105 664 105 988 -1 591 -99
1082 -338 1703 -74 189 -137 379 -160 474 l-6 28 51 -39 c64 -49 132 -71 234
-78 159 -11 250 30 309 139 l31 56 5 -2666 5 -2667 23 -65z m8140 5253 c53
-40 132 -57 237 -50 102 7 170 29 234 78 l51 39 -6 -28 c-22 -93 -85 -282
-146 -437 -248 -633 -351 -1143 -352 -1740 0 -321 8 -405 99 -955 118 -713
148 -987 148 -1380 0 -506 -78 -856 -243 -1100 -93 -137 -195 -223 -434 -364
-252 -150 -382 -263 -567 -492 -54 -68 -104 -126 -109 -129 -8 -5 -9 35 -4
138 6 131 5 151 -15 214 -42 139 -134 244 -276 313 -123 60 -232 83 -400 83
-268 1 -515 -66 -795 -216 -245 -130 -427 -218 -550 -266 -130 -51 -293 -102
-362 -115 l-38 -7 0 221 0 220 -32 0 c-72 0 -216 -23 -280 -45 -83 -28 -138
-60 -202 -116 l-50 -44 37 70 c70 133 174 237 302 301 148 73 18 68 1640 74
l1460 5 65 23 c115 41 190 90 280 181 68 68 94 104 128 171 78 160 72 -91 72
2860 l0 2645 34 -60 c18 -33 51 -74 74 -92z m-1311 -691 c71 -61 153 -393 153
-620 l0 -33 -50 52 c-59 59 -75 60 -32 0 31 -42 58 -132 65 -213 l4 -48 -28
21 c-16 11 -31 24 -34 29 -4 6 -10 10 -16 10 -5 0 2 -17 16 -38 50 -76 68
-147 70 -282 l2 -125 61 -126 c34 -70 84 -195 112 -279 63 -190 90 -241 148
-280 25 -17 52 -30 60 -30 22 0 9 -288 -24 -545 -29 -217 -34 -368 -21 -600 5
-82 5 -167 0 -188 -7 -35 -13 -40 -59 -56 -88 -29 -168 -102 -215 -194 l-19
-37 -255 0 c-174 0 -255 3 -255 11 0 17 57 95 92 124 34 29 163 95 185 95 7 0
17 17 23 38 12 44 39 90 97 164 66 84 112 167 135 243 20 62 22 94 22 285 1
174 -2 227 -16 278 -27 95 -75 204 -123 278 -42 64 -61 105 -124 267 -51 131
-127 230 -237 309 -25 17 -42 37 -40 42 32 68 86 213 96 256 8 30 19 62 26 70
17 22 34 88 34 138 0 24 4 41 9 38 11 -7 37 54 56 134 9 36 20 81 25 100 5 19
10 78 10 131 0 52 4 99 9 105 21 20 41 132 41 224 0 85 -21 205 -45 263 -10
24 5 21 42 -11z m-2822 -1189 c50 -13 125 -27 168 -30 42 -3 83 -11 91 -17 14
-12 60 -185 71 -271 4 -27 9 -59 12 -70 3 -12 -11 -1 -37 28 -23 26 -46 47
-51 47 -5 0 5 -21 22 -47 63 -100 86 -253 58 -385 l-12 -52 -36 104 c-33 94
-99 235 -107 227 -2 -1 13 -44 32 -95 87 -232 112 -385 124 -762 9 -271 10
-290 37 -375 25 -82 28 -103 27 -230 -2 -185 -5 -192 -81 -220 -79 -28 -147
-79 -229 -171 l-66 -74 -214 0 c-118 0 -214 2 -214 5 0 3 12 29 26 57 33 65
114 146 179 179 30 15 63 43 82 70 69 92 107 131 179 180 46 31 75 58 78 72
14 67 15 102 6 200 -17 180 -96 532 -137 611 -9 17 -32 49 -51 71 -27 32 -40
62 -62 150 -16 61 -61 187 -100 281 l-71 172 34 53 c46 73 84 172 99 258 11
66 14 72 33 65 11 -3 61 -17 110 -31z m-1406 -2173 c-72 -37 -123 -96 -141
-163 -14 -51 -15 -52 -56 -55 -52 -4 -53 4 -11 86 18 37 46 74 71 94 44 34
126 67 168 67 20 0 13 -6 -31 -29z m1077 -41 c-37 -34 -66 -72 -86 -115 -31
-63 -32 -64 -71 -64 -37 0 -40 2 -33 23 13 41 66 109 110 141 35 24 110 62
132 65 2 1 -21 -22 -52 -50z m1582 5 c-33 -24 -70 -70 -122 -156 -11 -19 -25
-28 -41 -28 -33 0 -31 16 5 74 38 60 74 94 125 117 58 27 75 23 33 -7z m1324
-23 c-27 -22 -67 -67 -88 -100 -23 -34 -46 -60 -56 -60 -24 -1 -23 12 6 57 31
48 70 84 126 116 65 37 69 32 12 -13z m-4592 -1784 c168 -44 278 -87 445 -177
437 -235 746 -356 1007 -394 133 -20 199 -20 295 0 82 17 144 43 181 77 l22
20 0 -51 0 -51 -52 -24 c-186 -87 -460 -72 -801 44 -152 51 -378 151 -522 229
-294 161 -453 226 -656 272 -135 30 -377 32 -479 4 -260 -71 -430 -292 -366
-476 8 -24 13 -46 10 -49 -10 -10 -60 38 -71 70 -51 146 61 365 234 457 143
76 228 92 448 88 156 -4 181 -7 305 -39z m4605 19 c100 -27 221 -92 278 -150
137 -137 181 -358 85 -429 -15 -12 -30 -19 -32 -16 -3 3 2 25 10 49 64 184
-106 405 -366 476 -102 28 -344 26 -479 -4 -203 -46 -362 -111 -656 -272 -240
-130 -555 -253 -775 -301 -82 -18 -136 -23 -250 -24 -154 0 -203 9 -297 52
l-53 24 0 51 0 51 23 -20 c55 -51 197 -93 313 -93 90 0 256 28 385 65 187 54
533 202 677 289 79 47 244 129 335 165 87 35 276 87 363 101 92 14 368 5 439
-14z m-4798 -127 c217 -29 388 -91 648 -236 344 -190 704 -326 975 -368 176
-27 357 -13 469 36 24 10 45 19 48 19 2 0 3 -19 1 -42 l-3 -42 -75 -25 c-69
-23 -89 -25 -265 -25 -173 0 -200 2 -308 27 -234 56 -500 159 -757 295 -455
240 -618 294 -880 295 -179 0 -278 -32 -376 -125 -68 -64 -97 -130 -92 -211 3
-54 1 -60 -19 -68 -30 -11 -43 14 -50 90 -14 163 149 333 362 375 86 17 218
19 322 5z m4720 -4 c220 -42 385 -209 370 -376 -7 -76 -20 -101 -50 -90 -20 8
-22 14 -18 70 4 78 -28 149 -98 214 -94 88 -195 120 -371 120 -262 -1 -425
-55 -880 -295 -257 -136 -523 -239 -757 -295 -108 -25 -135 -27 -308 -27 -176
0 -196 2 -265 25 l-75 25 -3 42 c-2 23 -1 42 1 42 3 0 25 -9 51 -20 109 -49
291 -62 466 -35 273 42 636 180 977 370 361 202 691 281 960 230z m-2852 -43
c182 -57 314 -188 265 -262 -9 -13 -12 -12 -22 5 -24 44 -118 124 -179 153
-68 32 -192 62 -259 62 -39 0 -40 1 -40 36 l0 37 88 -6 c48 -4 114 -15 147
-25z m905 -7 c0 -34 -1 -35 -40 -35 -67 0 -191 -30 -259 -62 -61 -29 -155
-109 -179 -153 -10 -17 -13 -18 -22 -5 -18 27 -11 66 19 108 74 101 254 179
419 181 l62 1 0 -35z m-943 -140 c84 -26 151 -67 207 -124 40 -41 40 -56 1
-71 -19 -7 -30 -2 -65 31 -71 68 -199 119 -297 119 l-43 0 0 41 0 42 62 -7
c34 -4 95 -18 135 -31z m943 -5 l0 -40 -43 0 c-98 0 -226 -51 -297 -119 -35
-33 -46 -38 -65 -31 -13 5 -27 14 -31 21 -11 19 96 113 168 148 64 30 176 59
236 60 31 1 32 0 32 -39z m-3006 -203 c29 -39 27 -126 -4 -187 -22 -43 -23
-44 -31 -21 -12 30 -40 24 -132 -30 -78 -46 -166 -79 -212 -79 -22 0 -54 14
-94 41 -66 44 -75 54 -35 39 37 -15 123 -12 180 5 27 8 79 32 116 54 84 51
147 69 182 53 23 -10 26 -9 26 8 0 31 -21 69 -42 76 -30 9 -67 -4 -143 -51
-124 -77 -228 -106 -313 -86 -24 5 -45 11 -47 13 -1 1 -6 22 -10 45 l-7 42 38
-20 c21 -10 53 -19 70 -19 52 0 150 35 217 78 101 65 118 72 171 69 41 -2 53
-7 70 -30z m5034 9 c26 -14 67 -39 92 -56 50 -34 155 -70 204 -70 17 0 49 9
70 19 l38 20 -7 -42 c-4 -23 -9 -44 -10 -45 -2 -2 -23 -8 -47 -13 -86 -20
-189 9 -315 87 -113 71 -167 68 -180 -9 l-6 -38 27 12 c37 17 99 0 184 -52 37
-22 89 -46 116 -54 57 -17 143 -20 180 -5 40 15 31 5 -35 -39 -40 -27 -72 -41
-94 -41 -46 0 -134 33 -212 79 -92 54 -120 60 -132 30 -8 -23 -9 -22 -28 16
-39 77 -38 161 3 206 25 27 93 25 152 -5z m-4689 -581 c204 -33 471 -125 818
-281 81 -37 180 -77 218 -91 217 -75 520 -113 667 -82 86 18 187 72 261 139
l67 62 0 -50 c0 -48 -3 -53 -47 -91 -65 -56 -167 -106 -259 -127 -61 -13 -107
-16 -223 -11 -265 9 -428 54 -804 221 -244 108 -489 194 -647 226 -111 23
-281 31 -362 17 -48 -8 -48 -8 -48 20 0 37 10 50 40 56 57 10 231 6 319 -8z
m4531 -5 c6 -8 10 -28 10 -43 0 -28 0 -28 -47 -20 -81 14 -252 6 -359 -16
-191 -39 -446 -131 -754 -271 -265 -120 -455 -168 -701 -177 -116 -5 -162 -2
-223 11 -92 21 -194 71 -258 127 -45 38 -48 43 -48 91 l0 50 67 -62 c74 -67
175 -121 261 -139 73 -15 207 -13 329 4 207 29 323 65 553 168 346 155 586
238 795 278 126 23 360 23 375 -1z m-4466 -155 c194 -44 363 -107 778 -289
251 -110 435 -150 693 -151 151 0 178 3 245 23 83 27 159 63 206 98 40 31 44
30 44 -10 0 -42 -37 -77 -126 -117 -122 -55 -172 -64 -384 -63 -173 0 -209 3
-322 27 -152 32 -289 80 -501 176 -284 129 -521 212 -696 245 -105 20 -262 21
-326 1 -27 -8 -50 -13 -51 -12 0 1 1 19 4 39 4 39 17 47 102 62 55 10 231 -5
334 -29z m4453 15 c27 -10 32 -17 35 -51 2 -21 3 -39 3 -39 -81 33 -243 39
-376 14 -175 -33 -412 -116 -696 -245 -212 -96 -349 -144 -501 -176 -113 -24
-149 -27 -322 -27 -212 -1 -262 8 -384 63 -89 40 -126 75 -126 117 0 19 3 34
6 34 3 0 20 -11 37 -24 173 -130 459 -160 802 -85 132 29 238 67 445 159 367
164 593 238 825 274 49 7 217 -2 252 -14z"></path>
      <path d="M5645 11754 c-558 -33 -877 -69 -1225 -140 -143 -29 -427 -101 -450
-115 -9 -5 842 -8 2050 -8 l2065 1 -90 29 c-285 92 -779 176 -1265 214 -181
15 -936 28 -1085 19z"></path>
      <path d="M3144 8823 c-36 -7 -114 -96 -114 -129 0 -28 -2 -28 44 -9 31 13 36
13 36 1 0 -23 50 -56 84 -56 53 1 93 49 82 101 -5 25 -2 30 20 35 15 4 24 12
22 22 -6 29 -103 49 -174 35z m110 -32 c3 -5 -2 -11 -12 -14 -9 -2 -55 -19
-102 -36 -47 -17 -77 -25 -67 -17 9 7 17 17 17 22 0 4 12 18 28 31 20 17 40
22 79 23 28 0 54 -4 57 -9z m-44 -67 c0 -3 -5 -14 -10 -25 -13 -23 -43 -25
-61 -3 -12 15 -11 16 7 10 15 -4 24 -2 28 9 5 14 36 22 36 9z"></path>
    </g>
  </symbol>
</svg>