<svg width="0" height="0" class="hidden">
  <symbol version="1.0" xmlns="http://www.w3.org/2000/svg" preserveAspectRatio="xMidYMid meet" viewBox="0 0 96.000000 96.000000" id="flag">
    <g transform="translate(0.000000,96.000000) scale(0.100000,-0.100000)"  stroke="none">
      <path d="M131 826 c-8 -9 -11 -110 -9 -351 3 -309 4 -339 21 -349 12 -8 22 -8
35 0 14 10 17 30 20 143 l3 131 144 0 145 0 25 -40 25 -40 138 0 c94 0 142 4
150 12 17 17 17 399 0 416 -8 8 -50 12 -125 12 l-113 0 -25 40 -25 40 -199 0
c-156 0 -201 -3 -210 -14z"></path>
    </g>
  </symbol>
</svg>