<svg width="0" height="0" class="hidden">
  <symbol xmlns="http://www.w3.org/2000/svg" viewBox="0 0 120 89" id="gerb_nauk">
    <path d="M15.75 19.5C16.7441 18.7442 20.2445 20.3731 30.75 26.25C38.1045 29.503 42.2529 31.0187 49.75 32.5C49.1688 27.0233 46.3684 26.6168 45 28.75C44.9993 28.6612 44.9993 28.5729 45 28.4853V25.75C44.0433 25.5442 43.0189 26.9993 43.25 28.5C39.6834 25.6415 39.155 24.1177 44.75 21.75C46.25 20.5 56 18.75 57.75 25.75L58.5 29.5L60 31V88.25C58.0741 82.3868 57.8822 78.3914 58.5 70.5L56.5 83.25V70.5L53 80.25L54.75 69.5L50.75 77.75L53 67.25L48.5 74.25L50.75 65.75L47.25 70.5L48.5 64.75C45.8349 62.4227 44.8709 61.1655 44 59H42.5L44.75 55C43.6749 56.2945 42.6742 57.3418 41.7108 58.2012C40.9359 58.8924 40.0859 58.0491 40.65 57.1773L44 52C42.9544 53.0456 41.8284 54.2447 40.6836 55.4799C39.8844 56.3422 38.6882 55.4407 39.287 54.4289L42.5 49C40.155 52.6196 38.164 54.8899 36.0269 56.4242C35.2307 56.9958 34.413 56.1101 34.9267 55.2754L39.25 48.25C36.3074 52.1759 33.9827 54.417 31.5476 55.6151C30.7146 56.025 30.0721 55.0849 30.6327 54.3448L35.25 48.25C32.7864 50.7031 30.7926 52.3591 28.8798 53.4443C28.012 53.9367 27.3575 52.9639 28.025 52.2223L32.5 47.25C29.5258 49.5779 27.28 51.0924 25.2557 52.0159C24.3663 52.4216 23.7722 51.4214 24.4507 50.7178L29 46C25.2277 49.3856 22.8798 50.7935 19.6832 50.8561C18.8711 50.872 18.5098 49.9189 19.0995 49.3603C20.6038 47.9352 22.0906 46.9708 24.2438 45.9712C21.4896 47.0851 19.5497 47.5351 17.3803 47.426C16.7737 47.3955 16.584 46.6406 17.0744 46.2822C17.7356 45.799 16.9649 44.2968 16.1509 44.3863C15.329 44.4766 14.5034 44.487 13.6231 44.4217C12.7051 44.3537 12.5519 43.1684 13.3877 42.7826L20.5 39.5C15.6187 40.8981 12.8834 41.1519 9.66576 40.1236C8.92284 39.8862 8.81627 38.9204 9.5078 38.5598C11.6928 37.4202 14.1365 37.1345 18.75 37.25C12.6472 36.5509 9.31399 35.6161 5.61902 32.8205C4.9491 32.3136 5.23511 31.2968 6.0741 31.2546C9.40697 31.087 12.4108 32.144 17.75 35C10.8617 31.1801 6.57158 27.9871 2.99076 23.815C2.29423 23.0034 3.21475 21.9728 4.13945 22.5101L18.75 31C10.2899 25.6392 5.33035 21.1569 1.79093 14.857C1.28015 13.9478 2.33963 13.1046 3.15684 13.7524L17.1819 24.8698C11.4379 20.1854 7.61882 16.2922 4.85446 12.3274C4.22795 11.4289 5.26454 10.5679 6.09842 11.2783L15.75 19.5Z"></path>
    <path d="M104.25 19.5C103.256 18.7442 99.7555 20.3731 89.25 26.25C81.8955 29.503 77.7471 31.0187 70.25 32.5C70.8312 27.0233 73.6316 26.6168 75 28.75C75.0007 28.6612 75.0007 28.5729 75 28.4853V25.75C75.9567 25.5442 76.9811 26.9993 76.75 28.5C80.3166 25.6415 80.845 24.1177 75.25 21.75C73.75 20.5 64 18.75 62.25 25.75L61.5 29.5L60 31V88.25C61.9259 82.3868 62.1178 78.3914 61.5 70.5L63.5 83.25V70.5L67 80.25L65.25 69.5L69.25 77.75L67 67.25L71.5 74.25L69.25 65.75L72.75 70.5L71.5 64.75C74.1651 62.4227 75.1291 61.1655 76 59H77.5L75.25 55C76.3251 56.2945 77.3258 57.3418 78.2892 58.2012C79.0641 58.8924 79.9141 58.0491 79.35 57.1773L76 52C77.0456 53.0456 78.1716 54.2447 79.3164 55.4799C80.1156 56.3422 81.3118 55.4407 80.713 54.4289L77.5 49C79.845 52.6196 81.836 54.8899 83.9731 56.4242C84.7693 56.9958 85.587 56.1101 85.0733 55.2754L80.75 48.25C83.6926 52.1759 86.0173 54.417 88.4524 55.6151C89.2854 56.025 89.9279 55.0849 89.3673 54.3448L84.75 48.25C87.2136 50.7031 89.2074 52.3591 91.1202 53.4443C91.988 53.9367 92.6425 52.9639 91.975 52.2223L87.5 47.25C90.4742 49.5779 92.72 51.0924 94.7443 52.0159C95.6337 52.4216 96.2278 51.4214 95.5493 50.7178L91 46C94.7723 49.3856 97.1202 50.7935 100.317 50.8561C101.129 50.872 101.49 49.9189 100.901 49.3603C99.3962 47.9352 97.9094 46.9708 95.7562 45.9712C98.5104 47.0851 100.45 47.5351 102.62 47.426C103.226 47.3955 103.416 46.6406 102.926 46.2822C102.264 45.799 103.035 44.2968 103.849 44.3863C104.671 44.4766 105.497 44.487 106.377 44.4217C107.295 44.3537 107.448 43.1684 106.612 42.7826L99.5 39.5C104.381 40.8981 107.117 41.1519 110.334 40.1236C111.077 39.8862 111.184 38.9204 110.492 38.5598C108.307 37.4202 105.864 37.1345 101.25 37.25C107.353 36.5509 110.686 35.6161 114.381 32.8205C115.051 32.3136 114.765 31.2968 113.926 31.2546C110.593 31.087 107.589 32.144 102.25 35C109.138 31.1801 113.428 27.9871 117.009 23.815C117.706 23.0034 116.785 21.9728 115.861 22.5101L101.25 31C109.71 25.6392 114.67 21.1569 118.209 14.857C118.72 13.9478 117.66 13.1046 116.843 13.7524L102.818 24.8698C108.562 20.1854 112.381 16.2922 115.146 12.3274C115.772 11.4289 114.735 10.5679 113.902 11.2783L104.25 19.5Z"></path>
    <path d="M60.2756 28C53.8408 32.6179 50.0588 33.9451 43.0256 34.25C42.6432 54.2218 46.462 61.4575 60.2756 67.5V28Z" fill="white"></path>
    <path d="M60.2244 28C66.6592 32.6179 70.4412 33.9451 77.4744 34.25C77.8568 54.2218 74.038 61.4575 60.2244 67.5V28Z" fill="white"></path>
    <rect x="55" y="14" width="10" height="2"></rect>
    <path d="M58.75 5.75C52.292 7.15128 51.6229 9.04928 55.25 14.25H64.75C68.1287 9.14635 67.4069 7.27069 61.25 5.75V3.75H58.75V5.75Z"></path>
    <path d="M60 0V3.5" ></path>
    <path d="M58 2H62" ></path>
    <path d="M60.25 33L52 34.75L60.25 37.75L68.75 34.75L60.25 33Z" ></path>
    <path d="M52.917 58.2719C60.1154 52.2071 64.2826 48.0627 70.7741 40.5518C71.0807 40.197 71.5044 39.9515 71.9702 39.8973C74.6539 39.5848 75.3711 40.3991 75.3007 42.6859C75.2846 43.2084 75.026 43.6915 74.6301 44.0329C67.2179 50.4248 63.1128 54.6906 56.8704 62.1989C56.3452 62.8307 55.4721 63.1124 54.7334 62.7528C53.7535 62.2759 53.0761 61.6523 52.444 60.6016C51.981 59.832 52.2301 58.8506 52.917 58.2719Z" fill="#A7C1E1"></path>
    <path d="M61.9994 60.0955L48.4144 44.8385C47.6477 43.9775 47.7659 42.6482 48.6725 41.9359L49.0213 41.6619C49.8523 41.0089 51.0478 41.1152 51.7506 41.9045L65.3356 57.1615C66.1023 58.0225 65.9841 59.3518 65.0775 60.0641L64.7287 60.3381C63.8977 60.9911 62.7022 60.8848 61.9994 60.0955Z" fill="#A7C1E1"></path>
    <path d="M65.25 60.25L67.25 62.5" ></path>
    <path d="M48.5 42L45.5 38.5" ></path>
    <path d="M49.5 38.5L45 42.5" ></path>
  </symbol>
</svg>