<svg width="0" height="0" class="hidden">
  <symbol version="1.0" xmlns="http://www.w3.org/2000/svg" preserveAspectRatio="xMidYMid meet" viewBox="0 0 300.000000 300.000000" id="gerb">
    <g transform="translate(0.000000,300.000000) scale(0.100000,-0.100000)"  stroke="none">
      <path d="M1493 2980 c4 -15 0 -20 -14 -20 -10 0 -19 -7 -19 -15 0 -8 9 -15 19
-15 14 0 18 -5 14 -20 -4 -14 0 -20 11 -20 9 0 16 8 16 20 0 13 7 20 20 20 11
0 20 7 20 15 0 8 -9 15 -20 15 -13 0 -20 7 -20 20 0 12 -7 20 -16 20 -11 0
-15 -6 -11 -20z"></path>
      <path d="M1492 2838 c2 -12 10 -23 18 -23 22 0 19 39 -3 43 -15 3 -18 -1 -15
-20z"></path>
      <path d="M1380 2792 c-65 -29 -85 -67 -70 -135 21 -99 17 -97 201 -97 l160 0
16 38 c26 61 29 129 7 154 -18 19 -72 48 -92 48 -5 0 -12 -22 -15 -50 -13
-105 -55 -188 -91 -174 -19 7 -52 85 -66 162 -12 61 -19 68 -50 54z"></path>
      <path d="M1468 2768 c-14 -11 -15 -19 -3 -61 7 -27 20 -56 29 -65 16 -16 18
-16 32 3 22 30 38 97 26 115 -12 20 -62 24 -84 8z"></path>
      <path d="M690 2703 c-37 -14 -72 -48 -87 -85 -12 -31 -26 -45 -57 -59 -35 -16
-37 -19 -16 -19 14 0 40 4 58 9 29 9 32 8 32 -12 0 -13 -14 -39 -31 -60 -33
-40 -22 -41 41 -2 56 35 73 61 81 121 8 60 35 100 73 107 11 2 -1 5 -29 5 -27
0 -57 -2 -65 -5z"></path>
      <path d="M2228 2699 c36 -11 62 -55 62 -106 0 -39 33 -88 77 -116 66 -41 78
-41 44 0 -35 42 -43 90 -14 79 9 -4 38 -9 63 -12 l45 -5 -40 15 c-22 9 -41 16
-43 16 -1 0 -12 21 -25 47 -31 65 -63 86 -139 90 -56 2 -59 1 -30 -8z"></path>
      <path d="M775 2670 c-3 -5 2 -10 13 -10 31 0 64 -44 69 -95 3 -25 10 -48 14
-51 5 -3 9 -17 9 -31 0 -21 2 -23 15 -13 59 49 -2 210 -80 210 -19 0 -37 -4
-40 -10z"></path>
      <path d="M2132 2658 c-11 -13 -25 -36 -31 -51 -16 -42 -14 -112 4 -127 13 -10
15 -9 15 9 0 12 7 24 16 28 10 3 14 13 11 25 -12 43 30 118 65 118 11 0 16 5
13 10 -12 19 -71 11 -93 -12z"></path>
      <path d="M1090 2645 c0 -8 -7 -15 -15 -15 -8 0 -15 -4 -15 -10 0 -5 7 -10 15
-10 8 0 15 -7 15 -15 0 -8 5 -15 10 -15 6 0 10 7 10 15 0 8 7 15 15 15 8 0 15
5 15 10 0 6 -7 10 -15 10 -8 0 -15 7 -15 15 0 8 -4 15 -10 15 -5 0 -10 -7 -10
-15z"></path>
      <path d="M1901 2648 c0 -10 -8 -18 -16 -18 -8 0 -15 -4 -15 -10 0 -5 6 -10 14
-10 8 0 17 -8 19 -17 4 -17 5 -17 6 0 0 9 8 17 16 17 8 0 15 5 15 10 0 6 -6
10 -14 10 -8 0 -17 8 -19 18 -4 16 -5 16 -6 0z"></path>
      <path d="M1082 2528 c5 -15 28 -18 29 -3 0 6 -7 12 -17 13 -10 3 -15 -1 -12
-10z"></path>
      <path d="M1370 2530 c0 -6 53 -10 140 -10 87 0 140 4 140 10 0 6 -53 10 -140
10 -87 0 -140 -4 -140 -10z"></path>
      <path d="M1890 2525 c0 -8 7 -15 15 -15 8 0 15 7 15 15 0 8 -7 15 -15 15 -8 0
-15 -7 -15 -15z"></path>
      <path d="M754 2489 c-25 -28 -24 -101 2 -130 31 -34 88 -58 151 -64 53 -4 55
-4 19 5 -57 15 -102 46 -116 80 -15 35 -7 86 17 112 15 17 14 18 -19 18 -23 0
-41 -7 -54 -21z"></path>
      <path d="M989 2480 c-29 -28 -31 -35 -25 -76 3 -25 8 -50 12 -55 3 -5 58 -9
123 -9 115 0 119 1 125 23 10 36 6 91 -7 108 -14 18 -57 43 -63 37 -2 -3 -8
-28 -14 -57 -23 -125 -66 -121 -88 8 -4 25 -13 46 -20 49 -6 2 -26 -10 -43
-28z"></path>
      <path d="M1815 2498 c-33 -18 -45 -40 -45 -84 0 -75 -2 -74 130 -74 66 0 121
4 124 9 4 5 9 30 12 55 6 41 4 48 -24 75 -39 39 -62 40 -62 4 0 -42 -18 -99
-36 -114 -23 -19 -40 8 -55 83 -12 62 -13 63 -44 46z"></path>
      <path d="M2179 2484 c53 -68 3 -156 -104 -184 l-40 -10 50 5 c72 6 119 22 148
49 34 32 44 88 23 132 -14 30 -20 34 -57 34 l-40 0 20 -26z"></path>
      <path d="M1087 2484 c-10 -10 -8 -56 3 -74 13 -21 22 -7 24 36 1 35 -12 53
-27 38z"></path>
      <path d="M1433 2483 c43 -2 110 -2 150 0 40 1 5 3 -78 3 -82 0 -115 -2 -72 -3z"></path>
      <path d="M1884 2475 c-7 -17 9 -70 21 -70 12 0 28 53 21 70 -3 8 -12 15 -21
15 -9 0 -18 -7 -21 -15z"></path>
      <path d="M1366 2415 c-9 -45 -59 -102 -100 -114 -20 -6 -24 -9 -11 -10 67 -3
156 54 181 116 19 44 19 43 -25 43 -36 0 -39 -2 -45 -35z"></path>
      <path d="M1560 2432 c0 -30 55 -97 94 -116 21 -10 54 -19 74 -22 l37 -4 -32
10 c-37 12 -75 58 -93 113 -10 33 -15 37 -46 37 -26 0 -34 -4 -34 -18z"></path>
      <path d="M312 2427 c-55 -65 -69 -204 -30 -286 21 -44 176 -208 217 -230 18
-10 18 -9 2 42 -12 39 -29 64 -65 97 -77 71 -125 158 -100 183 4 3 28 -26 54
-66 26 -40 58 -82 72 -95 l26 -23 6 44 c7 43 4 49 -57 139 -35 51 -72 116 -82
143 -23 62 -29 69 -43 52z"></path>
      <path d="M2680 2423 c0 -27 -62 -144 -116 -220 -39 -55 -48 -74 -45 -103 1
-19 6 -39 10 -43 9 -9 99 100 126 153 17 33 19 34 28 14 14 -33 -16 -84 -93
-160 -47 -46 -70 -77 -73 -98 -3 -17 -9 -40 -13 -51 -11 -27 105 65 164 130
103 115 123 254 50 361 -26 38 -38 43 -38 17z"></path>
      <path d="M995 2300 c3 -6 50 -10 106 -10 59 0 99 4 99 10 0 6 -42 10 -106 10
-67 0 -103 -4 -99 -10z"></path>
      <path d="M1800 2300 c0 -6 42 -10 105 -10 63 0 105 4 105 10 0 6 -42 10 -105
10 -63 0 -105 -4 -105 -10z"></path>
      <path d="M1390 2274 c-24 -9 -89 -13 -202 -13 -115 -1 -168 -4 -168 -12 0 -31
40 -86 104 -145 l71 -65 9 27 8 26 34 -33 34 -33 0 42 0 42 33 -20 c17 -11 50
-20 72 -20 l40 0 -38 25 c-20 14 -37 30 -37 36 0 6 14 22 30 36 31 25 51 58
64 101 8 25 -1 27 -54 6z m-248 -77 c-37 -18 -44 -19 -52 -7 -17 26 -11 30 43
29 l52 0 -43 -22z"></path>
      <path d="M1566 2268 c13 -45 34 -77 69 -105 l35 -29 -22 -21 c-13 -11 -32 -25
-43 -31 -17 -10 -15 -11 20 -12 22 0 54 9 72 20 l32 19 3 -42 3 -41 32 34 32
34 6 -27 c7 -26 20 -35 27 -19 2 4 25 25 52 47 52 42 106 117 106 147 0 17
-12 18 -162 18 -119 -1 -176 3 -213 14 -27 9 -51 16 -53 16 -2 0 0 -10 4 -22z
m374 -57 c0 -5 -6 -14 -14 -20 -11 -10 -23 -8 -53 8 l-38 20 53 1 c28 0 52 -4
52 -9z"></path>
      <path d="M2020 2221 c0 -5 -15 -31 -34 -59 l-33 -50 38 5 c51 7 106 -4 129
-27 17 -17 20 -17 31 -3 22 25 16 80 -10 103 -34 29 -121 52 -121 31z m45 -21
c4 -6 -5 -10 -20 -10 -15 0 -24 4 -20 10 3 6 12 10 20 10 8 0 17 -4 20 -10z"></path>
      <path d="M889 2197 c-38 -25 -49 -69 -29 -107 l12 -22 25 24 c21 19 35 23 91
23 l67 0 -30 52 c-27 48 -33 52 -66 53 -21 0 -50 -9 -70 -23z m96 3 c4 -6 -5
-10 -20 -10 -15 0 -24 4 -20 10 3 6 12 10 20 10 8 0 17 -4 20 -10z"></path>
      <path d="M526 2096 c-10 -92 20 -195 69 -236 26 -22 17 -27 -62 -34 -42 -3
-78 -8 -81 -11 -9 -9 23 -38 81 -76 l58 -37 -61 -33 c-64 -34 -71 -43 -42 -54
64 -26 122 -42 122 -34 0 5 16 26 35 48 l35 39 -40 36 c-22 20 -40 40 -40 45
0 4 22 19 48 31 l49 23 -13 36 c-7 20 -15 58 -19 84 -5 33 -18 61 -42 89 -19
23 -46 63 -59 90 -13 26 -26 48 -28 48 -2 0 -6 -24 -10 -54z"></path>
      <path d="M2452 2108 c-13 -26 -40 -69 -61 -95 -29 -37 -40 -63 -49 -115 -7
-37 -15 -73 -17 -80 -3 -8 16 -25 47 -42 l53 -29 -43 -38 c-46 -40 -47 -56 -6
-89 9 -8 19 -22 23 -31 5 -15 11 -15 70 5 36 12 66 26 68 32 2 6 -24 26 -58
44 l-62 33 29 16 c48 26 124 81 124 90 0 10 -60 21 -117 21 -50 0 -60 11 -32
36 52 47 78 153 62 244 l-9 45 -22 -47z"></path>
      <path d="M186 2082 c-3 -6 -11 -33 -16 -61 -24 -129 68 -236 242 -281 24 -6
52 -14 63 -17 35 -10 -76 80 -144 118 -64 34 -99 75 -81 93 5 5 20 -3 36 -17
15 -14 48 -37 73 -51 43 -23 49 -24 101 -12 l55 13 -49 21 c-68 31 -162 95
-222 154 -29 28 -54 45 -58 40z"></path>
      <path d="M1038 2070 c-26 -11 -66 -31 -88 -45 -22 -14 -54 -28 -70 -32 -16 -3
-27 -9 -24 -14 11 -18 61 -8 107 21 55 35 57 35 57 14 0 -13 4 -12 25 5 14 11
40 23 56 26 l31 7 -21 19 c-11 10 -21 19 -23 18 -2 0 -24 -9 -50 -19z"></path>
      <path d="M1899 2071 c-23 -19 -23 -20 -4 -21 11 0 39 -11 62 -24 27 -16 40
-19 36 -10 -8 21 7 17 57 -16 45 -30 93 -39 105 -20 3 6 -1 10 -10 10 -9 0
-54 20 -98 44 -108 58 -119 61 -148 37z"></path>
      <path d="M2775 2043 c-58 -52 -159 -121 -228 -154 l-48 -23 57 -13 c62 -14 78
-9 165 59 44 33 49 34 49 9 0 -23 -50 -67 -105 -93 -22 -10 -62 -38 -90 -63
-48 -43 -49 -45 -20 -39 64 14 182 65 216 93 52 43 69 86 68 168 -1 105 -5
109 -64 56z"></path>
      <path d="M1313 2037 c4 -9 10 -24 13 -32 8 -20 -31 -20 -70 0 -35 19 -40 15
-36 -27 2 -18 4 -68 4 -111 1 -42 4 -77 8 -77 3 0 25 21 47 46 l41 47 20 -47
c12 -25 22 -46 24 -46 2 0 20 25 41 56 l37 57 -27 62 c-19 45 -33 64 -48 68
-12 2 -31 8 -41 12 -16 7 -18 5 -13 -8z"></path>
      <path d="M1661 2036 c-27 -8 -38 -20 -57 -60 -31 -68 -30 -80 12 -138 l37 -50
20 46 c11 25 23 46 26 46 4 0 15 -13 24 -30 10 -16 30 -38 46 -49 l28 -20 -10
45 c-8 33 -7 62 2 110 16 76 7 96 -30 70 -13 -9 -36 -16 -52 -16 -25 0 -27 2
-17 21 16 30 9 36 -29 25z"></path>
      <path d="M700 1989 c0 -42 21 -142 36 -171 14 -27 14 -28 -28 -49 -24 -12 -45
-24 -48 -26 -3 -3 13 -20 34 -38 l40 -33 -33 -38 c-32 -36 -33 -38 -15 -51 11
-8 31 -17 47 -20 32 -7 33 -12 7 -58 -11 -20 -20 -40 -20 -45 0 -6 25 -10 55
-10 l55 0 0 -50 c0 -56 7 -60 65 -36 38 16 40 15 50 -31 7 -36 17 -39 55 -18
33 19 60 19 60 0 0 -8 -6 -15 -13 -15 -7 0 -34 -13 -59 -29 l-46 -29 -18 41
c-10 23 -18 43 -19 44 0 1 -19 -4 -40 -12 -68 -24 -74 -22 -77 37 l-3 53 -55
8 c-30 5 -56 10 -58 12 -1 1 4 22 12 46 22 61 21 62 -27 82 l-42 18 -37 -40
c-21 -22 -38 -45 -38 -50 0 -6 27 -13 61 -17 56 -6 60 -8 54 -28 -4 -11 -9
-36 -12 -55 l-5 -34 56 7 56 7 0 -47 0 -47 33 6 c17 4 41 9 53 12 17 5 22 0
33 -35 l12 -41 58 7 c51 5 60 4 85 -18 21 -18 29 -36 33 -70 8 -71 -2 -98 -36
-98 -37 0 -50 -17 -60 -79 -7 -43 -6 -51 8 -51 9 0 27 9 41 20 14 11 35 20 48
20 20 0 22 -5 22 -55 l0 -56 30 16 c16 8 31 15 35 15 3 0 5 -20 5 -45 0 -25 2
-45 4 -45 2 0 23 7 46 15 24 8 44 14 46 12 2 -1 -2 -23 -7 -47 -14 -62 -5 -93
24 -84 12 3 30 13 40 22 9 8 20 13 23 9 9 -9 -16 -50 -44 -73 l-26 -21 27 -17
c14 -10 44 -20 65 -23 33 -4 39 -9 35 -24 -4 -15 0 -19 21 -19 14 0 26 -4 26
-8 0 -5 6 -16 13 -26 11 -16 17 -17 36 -7 16 9 31 10 52 2 27 -9 31 -8 41 15
8 17 18 24 32 22 15 -2 22 3 24 20 3 16 10 22 29 22 14 0 42 9 62 21 l37 21
-38 38 c-51 51 -52 79 -2 45 20 -14 41 -25 45 -25 16 0 22 54 11 94 -6 23 -9
42 -8 44 2 1 22 -5 46 -13 23 -8 44 -15 46 -15 2 0 4 17 4 38 0 49 6 55 41 37
26 -14 28 -13 34 5 3 10 3 35 -1 55 -6 32 -4 35 17 35 13 0 38 -9 54 -20 45
-30 54 -26 48 23 -7 59 -27 87 -62 87 -17 0 -31 6 -35 16 -10 27 -7 83 8 119
19 46 47 58 110 50 l53 -6 16 42 c13 33 20 40 34 34 10 -4 33 -9 51 -12 l32
-6 0 47 0 47 61 -7 60 -7 -7 29 c-4 16 -11 39 -15 52 -5 13 -9 25 -9 26 0 2
27 6 60 10 36 4 60 12 60 19 0 11 -66 87 -76 87 -9 0 -84 -40 -84 -46 0 -2 7
-21 15 -41 23 -56 20 -61 -39 -68 l-54 -7 -7 -54 c-7 -60 -13 -63 -78 -40
l-38 14 -20 -44 -21 -44 -31 24 c-18 14 -44 28 -59 31 -16 4 -28 13 -28 21 0
18 41 18 66 -1 30 -22 41 -18 54 21 10 30 16 35 34 30 71 -21 74 -20 81 16 4
18 5 40 3 48 -2 11 10 16 50 18 28 2 52 7 52 13 0 5 -9 27 -20 49 -22 42 -22
42 33 59 20 7 37 18 37 24 0 6 -15 26 -32 45 l-33 33 38 31 c20 16 37 34 37
38 0 4 -20 17 -45 29 l-44 21 21 47 c11 26 23 76 25 112 l4 66 -19 -40 c-30
-63 -97 -140 -156 -182 -31 -21 -58 -45 -61 -54 -3 -9 4 -37 16 -64 37 -84 11
-158 -68 -191 -68 -29 -72 -25 -75 79 l-3 92 -70 3 c-76 3 -94 15 -96 61 0 17
-14 38 -39 59 l-39 34 -12 -46 c-6 -25 -15 -46 -20 -46 -12 0 -57 47 -87 93
l-27 40 -17 -59 c-9 -32 -20 -72 -24 -89 l-7 -30 -9 35 c-5 19 -16 59 -24 88
l-15 52 -47 -62 c-58 -77 -77 -83 -87 -31 -10 53 -14 57 -36 29 -11 -14 -28
-28 -39 -31 -15 -5 -20 -15 -20 -39 0 -47 -15 -56 -91 -56 -79 0 -79 1 -79
-112 l0 -81 -37 6 c-102 17 -146 114 -96 210 21 41 10 67 -45 107 -63 47 -110
100 -149 168 -27 47 -33 53 -33 31z m1230 -655 c0 -348 1 -345 -80 -417 -26
-23 -91 -66 -145 -95 -54 -30 -119 -69 -146 -89 l-48 -34 -73 49 c-40 26 -104
65 -143 86 -94 51 -142 91 -177 145 l-28 45 0 308 0 308 420 0 420 0 0 -306z"></path>
      <path d="M1120 1598 c-1 -7 -1 -137 -2 -289 0 -238 2 -280 16 -307 19 -36 114
-110 191 -149 28 -14 80 -45 117 -69 l68 -43 77 48 c43 27 110 67 148 89 39
22 90 61 115 87 l45 46 3 299 3 300 -391 0 c-305 0 -390 -3 -390 -12z m450
-44 c40 -34 66 -82 51 -97 -7 -7 -13 -3 -20 14 -14 33 -41 64 -69 78 -32 17
-69 -4 -106 -58 -32 -48 -47 -42 -22 7 22 43 73 82 106 82 16 0 42 -11 60 -26z
m-232 -110 c41 -11 23 -23 -40 -26 -57 -3 -63 -5 -66 -25 -2 -13 -13 -29 -24
-37 l-21 -15 29 -57 c16 -31 35 -59 42 -62 7 -2 31 12 52 33 32 31 39 46 45
92 4 30 11 53 17 51 12 -4 12 -4 -2 -99 -6 -45 -10 -100 -8 -122 2 -38 1 -42
-23 -45 -15 -2 -32 5 -44 18 -18 20 -45 27 -45 13 0 -16 17 -31 56 -51 22 -11
46 -28 53 -36 17 -20 45 -20 61 -1 14 16 50 21 50 6 0 -20 43 -24 56 -6 12 17
15 17 55 1 38 -15 43 -15 59 -1 10 9 34 24 53 34 33 17 36 17 40 2 3 -9 5 -4
6 10 1 27 25 46 36 28 4 -5 20 1 37 16 28 23 48 32 48 20 0 -3 -7 -22 -15 -42
-19 -44 -19 -41 8 -45 12 -2 22 -10 22 -18 0 -11 -10 -14 -35 -13 l-35 2 33
-16 c17 -9 32 -20 32 -24 0 -13 -45 -18 -85 -9 -50 12 -77 12 -47 0 12 -5 22
-16 22 -25 0 -23 -31 -31 -42 -12 -5 9 -18 21 -28 27 -20 11 -20 10 0 -25 l20
-35 -23 0 c-34 0 -65 26 -73 63 -4 17 -9 26 -11 20 -6 -17 -43 -16 -66 2 -20
15 -42 11 -69 -13 -10 -8 -24 -12 -32 -9 -9 4 -30 -10 -54 -34 -22 -21 -47
-39 -56 -39 -17 0 -22 15 -7 24 12 8 21 46 10 46 -5 0 -17 -9 -26 -20 -10 -11
-26 -20 -36 -20 -26 0 -18 31 13 48 24 13 24 13 -10 6 -44 -9 -115 -8 -131 1
-7 5 4 15 27 26 l39 19 -33 -6 c-24 -4 -34 -2 -38 11 -10 25 10 39 37 25 22
-10 22 -10 6 3 -18 15 -43 74 -34 83 9 9 58 -28 67 -50 l9 -21 0 21 c1 11 7
28 14 38 12 16 10 25 -19 68 -18 27 -36 65 -40 84 -3 19 -10 37 -15 40 -14 8
-11 54 4 58 65 19 144 28 175 20z m456 -8 c72 -15 85 -31 64 -77 -9 -19 -19
-45 -23 -59 -4 -14 -20 -43 -35 -65 -15 -22 -25 -46 -22 -54 3 -10 0 -12 -11
-8 -9 3 -21 -1 -27 -9 -7 -8 -19 -14 -28 -14 -12 0 -11 5 6 23 l22 23 -29 29
-30 28 -3 -63 c-2 -36 -8 -65 -14 -67 -8 -3 -13 32 -17 109 -3 62 -9 126 -13
142 -5 22 -4 28 7 24 8 -3 18 -29 24 -59 8 -46 17 -61 52 -93 l42 -37 30 53
c35 61 38 76 14 93 -9 7 -17 23 -18 36 -1 22 -6 24 -63 27 -64 3 -83 17 -34
25 43 6 44 6 106 -7z m-154 -6 c0 -12 -33 -38 -63 -49 -15 -6 -37 -27 -49 -47
l-21 -36 -18 35 c-12 23 -31 40 -58 50 -22 9 -45 25 -50 35 -10 19 -5 20 124
20 74 0 135 -4 135 -8z m-218 -77 c8 -16 23 -29 36 -31 25 -4 25 -25 1 -30
-24 -5 -69 37 -69 64 0 32 16 31 32 -3z m198 -3 c0 -36 -38 -65 -70 -55 -25 8
-21 31 4 27 23 -4 46 16 46 39 0 11 5 19 10 19 6 0 10 -13 10 -30z m-160 0 c0
-5 -4 -10 -10 -10 -5 0 -10 5 -10 10 0 6 5 10 10 10 6 0 10 -4 10 -10z m120 0
c0 -5 -7 -10 -16 -10 -8 0 -12 5 -9 10 3 6 10 10 16 10 5 0 9 -4 9 -10z m-76
-66 c44 -1 87 1 97 6 12 7 19 5 23 -6 10 -26 7 -51 -16 -119 -21 -66 -21 -66
-52 -58 -40 10 -85 10 -113 0 -19 -7 -24 -2 -42 48 -12 31 -21 76 -21 102 0
43 1 45 23 38 12 -4 58 -9 101 -11z m23 -272 c7 -4 14 -23 15 -42 3 -34 2 -35
-32 -35 -39 0 -47 15 -31 58 11 27 26 33 48 19z m-108 -100 c23 -46 46 -68 56
-52 8 13 52 13 60 -1 9 -14 50 24 65 62 7 16 19 29 26 29 18 0 18 -4 -2 -42
-25 -47 -94 -118 -117 -118 -27 0 -107 91 -121 138 -12 37 12 25 33 -16z"></path>
      <path d="M1307 1222 l-27 -28 30 -29 30 -29 0 57 c0 31 -1 57 -3 57 -2 0 -15
-13 -30 -28z"></path>
      <path d="M164 1756 c-9 -25 16 -95 47 -131 41 -46 107 -65 223 -65 l91 1 -45
24 c-27 14 -62 24 -88 25 -53 0 -112 24 -112 44 0 9 1 16 3 16 1 0 33 -7 71
-14 66 -14 71 -14 98 6 16 11 28 21 26 23 -2 1 -41 10 -87 19 -46 10 -113 28
-148 42 -77 28 -72 28 -79 10z"></path>
      <path d="M2799 1755 c-32 -18 -156 -51 -222 -60 l-47 -6 29 -25 c30 -25 29
-25 154 2 15 4 27 2 27 -3 0 -23 -41 -45 -96 -50 -33 -3 -79 -17 -104 -30
l-45 -23 110 3 c89 2 118 7 152 25 62 32 83 65 83 128 0 58 -2 60 -41 39z"></path>
      <path d="M470 1528 c-25 -5 -87 -7 -138 -6 -89 4 -92 3 -86 -17 11 -36 52 -82
89 -99 43 -21 115 -16 205 14 50 16 52 18 25 21 -16 2 -66 3 -110 4 -67 0 -80
3 -83 18 -3 15 5 17 56 17 58 0 73 8 96 48 8 13 8 13 -54 0z"></path>
      <path d="M2496 1518 c30 -36 35 -38 97 -38 58 0 69 -8 42 -30 -10 -8 -34 -10
-77 -6 -35 3 -79 2 -98 -3 l-35 -8 42 -12 c163 -46 234 -35 283 44 36 58 32
60 -92 60 -62 0 -128 3 -147 8 l-34 7 19 -22z"></path>
      <path d="M575 1394 c-16 -7 -72 -23 -122 -35 -51 -12 -93 -25 -93 -29 0 -14
80 -80 105 -86 34 -8 108 11 169 44 43 24 47 27 26 30 -13 2 -48 -4 -77 -14
-50 -17 -54 -17 -70 -1 -18 18 -22 15 49 37 26 8 38 18 43 37 8 32 6 33 -30
17z"></path>
      <path d="M2408 1387 c8 -35 19 -44 69 -56 43 -11 45 -13 30 -29 -15 -14 -22
-15 -59 -3 -24 7 -61 15 -83 17 l-40 5 50 -30 c63 -38 131 -56 176 -47 32 6
109 67 109 86 0 5 -19 11 -42 15 -54 8 -160 36 -173 45 -5 4 -17 10 -26 13
-13 4 -16 1 -11 -16z"></path>
      <path d="M666 1269 c-21 -16 -65 -39 -98 -50 -32 -12 -58 -25 -58 -30 0 -16
62 -51 99 -56 46 -6 110 22 163 71 27 25 30 31 15 34 -9 2 -33 -6 -53 -19 -26
-16 -38 -19 -47 -10 -8 8 -6 15 11 27 20 14 32 65 15 63 -5 0 -26 -14 -47 -30z"></path>
      <path d="M2297 1280 c-5 -20 15 -50 34 -50 15 0 10 -17 -8 -24 -10 -4 -28 2
-45 14 -16 12 -39 20 -51 18 -19 -3 -13 -10 38 -51 33 -26 75 -50 93 -53 48
-9 101 4 130 33 l26 26 -60 21 c-32 12 -80 36 -106 54 -43 30 -46 30 -51 12z"></path>
      <path d="M2165 1197 c-4 -14 -4 -31 0 -36 10 -17 -23 -13 -51 5 -37 25 -38 12
-4 -35 43 -58 111 -80 154 -48 17 13 17 14 -7 29 -13 9 -38 38 -55 63 -30 46
-31 46 -37 22z"></path>
      <path d="M811 1174 c-13 -19 -37 -46 -53 -59 -27 -23 -28 -25 -9 -35 26 -13
74 -13 105 1 23 11 82 86 74 95 -2 2 -17 -3 -32 -11 -37 -20 -63 -20 -47 -1
11 13 6 46 -8 46 -3 0 -17 -16 -30 -36z"></path>
      <path d="M360 1131 c4 -22 3 -44 -2 -49 -5 -5 -3 -14 7 -22 19 -16 19 -34 -1
-50 -13 -11 -19 -10 -36 8 -21 20 -21 22 -4 41 12 13 14 21 6 26 -7 4 -10 18
-7 31 2 14 0 24 -7 23 -6 -1 -19 2 -30 6 -36 16 -67 -24 -50 -63 4 -9 6 -21 5
-25 -1 -5 4 -7 11 -4 19 6 48 -11 48 -29 0 -11 -10 -13 -45 -10 -32 3 -45 0
-45 -8 0 -24 40 -50 75 -49 24 1 35 -3 35 -13 0 -8 5 -14 10 -14 10 0 14 14
11 38 -1 6 3 12 9 12 5 0 10 -9 10 -20 0 -40 54 -13 65 33 6 23 4 27 -14 27
-12 0 -21 5 -21 10 0 6 11 10 25 10 14 0 25 5 25 10 0 6 -6 10 -13 10 -8 0
-13 13 -13 35 0 34 -26 75 -49 75 -9 0 -10 -11 -5 -39z m-62 -34 c4 -19 -6
-21 -27 -8 -16 10 -5 34 12 28 7 -2 13 -11 15 -20z"></path>
      <path d="M330 1040 c0 -5 7 -10 16 -10 8 0 12 5 9 10 -3 6 -10 10 -16 10 -5 0
-9 -4 -9 -10z"></path>
      <path d="M430 936 c0 -14 29 -31 38 -22 2 3 2 12 -1 21 -8 19 -37 20 -37 1z"></path>
      <path d="M2252 893 c2 -10 -3 -18 -12 -18 -8 0 -16 -8 -18 -17 -2 -12 3 -18
16 -18 15 0 19 -5 15 -20 -4 -15 0 -20 16 -20 14 0 21 6 21 20 0 11 7 20 15
20 8 0 15 7 15 15 0 8 -7 15 -15 15 -8 0 -15 9 -15 20 0 13 -7 20 -20 20 -14
0 -20 -6 -18 -17z"></path>
      <path d="M1033 885 c-6 -11 -14 -42 -18 -68 -5 -32 -14 -51 -26 -58 -30 -15
-13 -29 35 -29 46 0 72 -19 63 -44 -7 -19 -65 -36 -145 -43 -53 -5 -68 -3 -90
14 -48 35 -51 35 -63 11 -7 -16 -7 -32 0 -51 13 -34 31 -35 31 -1 0 25 0 25
49 -16 44 -37 50 -40 77 -29 16 6 74 14 129 18 l100 6 1 53 c1 28 5 64 9 79 6
26 6 26 -19 10 -14 -10 -27 -17 -30 -17 -3 0 -8 20 -12 45 -7 50 -10 52 -36
28 -10 -9 -20 -14 -23 -11 -3 3 -9 32 -13 64 -7 51 -9 56 -19 39z"></path>
      <path d="M1967 844 c-7 -67 -11 -73 -35 -51 -26 24 -29 22 -36 -28 -4 -25 -9
-45 -12 -45 -3 0 -16 8 -31 17 -25 17 -26 17 -17 -7 4 -14 8 -50 9 -80 l0 -55
90 -7 c130 -10 173 -24 198 -65 l20 -34 28 27 c19 18 35 25 48 21 12 -3 21 -2
21 3 0 20 36 20 52 0 10 -12 18 -17 18 -11 0 19 30 12 54 -14 l23 -24 21 38
c12 21 22 41 22 44 0 3 -73 5 -161 5 -169 0 -185 4 -175 45 3 13 -2 17 -28 17
-39 0 -133 27 -141 40 -3 5 -1 19 5 30 8 15 21 20 54 20 51 0 63 8 37 27 -13
9 -22 31 -26 68 -10 80 -31 90 -38 19z"></path>
      <path d="M490 873 c0 -17 185 -203 202 -203 4 0 8 -7 8 -17 0 -15 2 -15 19 1
18 17 19 18 2 34 -10 9 -61 59 -113 110 -96 92 -118 107 -118 75z"></path>
      <path d="M2194 751 c-35 -22 -74 -71 -74 -95 0 -13 12 -16 60 -16 l60 0 0 65
c0 36 -3 65 -7 65 -5 0 -22 -9 -39 -19z"></path>
      <path d="M2300 705 l0 -65 65 0 c45 0 65 4 65 13 0 23 -40 77 -72 97 -53 32
-58 28 -58 -45z"></path>
      <path d="M2262 751 c2 -7 7 -12 11 -12 12 1 9 15 -3 20 -7 2 -11 -2 -8 -8z"></path>
      <path d="M2260 680 c0 -5 7 -10 16 -10 8 0 12 5 9 10 -3 6 -10 10 -16 10 -5 0
-9 -4 -9 -10z"></path>
      <path d="M2130 610 c0 -5 5 -10 10 -10 6 0 10 5 10 10 0 6 -4 10 -10 10 -5 0
-10 -4 -10 -10z"></path>
      <path d="M2190 610 c0 -5 7 -10 15 -10 8 0 15 5 15 10 0 6 -7 10 -15 10 -8 0
-15 -4 -15 -10z"></path>
      <path d="M2260 610 c0 -5 7 -10 16 -10 8 0 12 5 9 10 -3 6 -10 10 -16 10 -5 0
-9 -4 -9 -10z"></path>
      <path d="M2330 610 c0 -5 5 -10 10 -10 6 0 10 5 10 10 0 6 -4 10 -10 10 -5 0
-10 -4 -10 -10z"></path>
      <path d="M2400 610 c0 -5 5 -10 10 -10 6 0 10 5 10 10 0 6 -4 10 -10 10 -5 0
-10 -4 -10 -10z"></path>
      <path d="M690 595 c-10 -12 -10 -19 -2 -27 16 -16 67 2 67 22 0 21 -49 25 -65
5z"></path>
      <path d="M854 560 c4 -14 10 -37 13 -52 6 -31 15 -35 33 -13 10 12 6 21 -21
52 -28 32 -31 34 -25 13z"></path>
      <path d="M752 540 c-26 -24 -28 -48 -6 -57 20 -7 41 14 49 50 9 33 -11 37 -43
7z"></path>
      <path d="M1235 534 c-27 -8 -67 -13 -87 -12 -35 3 -36 2 -21 -14 9 -10 22 -18
29 -18 8 0 -7 -20 -31 -45 -25 -24 -45 -49 -45 -55 0 -25 42 -90 77 -119 l38
-32 5 53 c6 64 36 116 88 152 52 35 62 33 25 -6 -48 -50 -73 -106 -73 -161 0
-77 36 -126 111 -147 l28 -8 -6 86 c-5 76 -3 94 17 139 12 28 30 59 40 68 17
15 17 13 3 -42 -7 -32 -14 -101 -15 -153 -2 -109 22 -181 65 -201 84 -38 136
119 103 310 -9 52 -15 96 -12 98 2 2 16 -17 31 -43 32 -55 44 -127 32 -203 -4
-29 -6 -55 -5 -56 10 -10 87 29 110 54 52 59 47 142 -15 223 -63 82 -57 92 16
28 49 -44 83 -113 75 -155 -4 -16 -1 -25 8 -25 17 0 93 88 100 116 7 29 -18
76 -50 94 -32 17 -33 24 -1 38 34 16 32 30 -4 24 -15 -2 -56 3 -89 12 -39 10
-70 12 -84 7 -20 -7 -16 -10 28 -25 64 -21 94 -42 94 -67 0 -24 -3 -24 -48 6
-48 32 -112 58 -112 46 0 -5 -9 -13 -20 -16 -19 -6 -17 -11 24 -56 44 -49 65
-102 52 -134 -9 -24 -25 -18 -32 13 -9 36 -38 90 -68 126 -19 23 -28 27 -38
18 -8 -6 -23 -9 -34 -6 -20 5 -21 3 -17 -173 4 -173 -1 -214 -26 -199 -7 5
-11 67 -11 191 l0 183 -22 -1 c-13 0 -29 2 -37 4 -20 6 -80 -76 -93 -127 -14
-50 -31 -53 -36 -6 -4 36 16 77 59 127 23 26 27 35 15 35 -9 0 -16 6 -16 14 0
21 -54 4 -108 -34 -51 -36 -54 -36 -50 -7 2 16 20 31 68 54 36 18 60 32 53 32
-6 1 -17 3 -25 5 -7 2 -35 -2 -63 -10z"></path>
      <path d="M820 501 c0 -17 5 -31 10 -31 6 0 10 11 10 24 0 14 -4 28 -10 31 -6
4 -10 -7 -10 -24z"></path>
      <path d="M2263 518 c-32 -40 -16 -109 22 -94 14 5 17 14 12 47 -6 48 -19 66
-34 47z"></path>
      <path d="M2192 498 c-15 -15 -16 -45 -1 -54 14 -8 29 14 29 44 0 24 -10 28
-28 10z"></path>
      <path d="M2327 504 c-12 -13 -8 -41 9 -55 13 -10 17 -10 24 1 15 25 -14 72
-33 54z"></path>
      <path d="M915 470 c-10 -11 -16 -22 -13 -25 3 -3 13 4 23 15 10 11 16 22 13
25 -3 3 -13 -4 -23 -15z"></path>
      <path d="M940 435 c-10 -12 -10 -15 4 -15 9 0 16 7 16 15 0 8 -2 15 -4 15 -2
0 -9 -7 -16 -15z"></path>
    </g>
  </symbol>
</svg>