<svg width="0" height="0" class="hidden">
  <symbol xmlns="http://www.w3.org/2000/svg" viewBox="0 0 10 10" id="link">
    <path d="M5.72188 3.52062C5.61252 3.45031 5.485 3.43124 5.36719 3.4575C5.25062 3.48343 5.14376 3.55374 5.07407 3.66219C5.00407 3.77124 4.98502 3.89812 5.01096 4.01531C5.03657 4.1325 5.1069 4.23998 5.21564 4.30969C5.66783 4.59938 5.93752 5.09126 5.93752 5.625C5.93752 6.0425 5.77502 6.43469 5.48002 6.72967L3.60502 8.60467C3.30971 8.89998 2.91721 9.0625 2.50002 9.0625C1.63845 9.0625 0.937516 8.36157 0.937516 7.5C0.937516 7.0825 1.10002 6.69031 1.39502 6.39533L2.2844 5.50564C2.37814 5.4119 2.42377 5.28845 2.4219 5.16564C2.41971 5.04845 2.37409 4.93219 2.2844 4.84281C2.19283 4.75124 2.07283 4.70531 1.95315 4.70531C1.83315 4.70531 1.71315 4.75093 1.62191 4.84281L0.732533 5.7325C0.26 6.20438 0 6.83219 0 7.5C0 8.87843 1.12157 10 2.5 10C3.16781 10 3.79562 9.74 4.26781 9.2675L6.14281 7.3925C6.61498 6.92095 6.875 6.29281 6.875 5.625C6.875 4.77031 6.44407 3.98376 5.72188 3.52062ZM7.5 0C6.83219 0 6.20438 0.26 5.73219 0.7325L3.85719 2.6075C3.385 3.07905 3.125 3.70719 3.125 4.37469C3.125 5.22938 3.55595 6.01624 4.27812 6.47938C4.3875 6.54936 4.515 6.56843 4.63281 6.54219C4.74936 6.51657 4.85624 6.44626 4.92593 6.33781C4.99593 6.22845 5.015 6.10157 4.98905 5.98438C4.96343 5.86719 4.89312 5.75969 4.78436 5.69031C4.33248 5.40031 4.06248 4.90843 4.06248 4.37469C4.06248 3.95719 4.22498 3.565 4.51998 3.27L6.39498 1.395C6.69031 1.1 7.08281 0.9375 7.5 0.9375C8.36157 0.9375 9.0625 1.63843 9.0625 2.49969C9.0625 2.91719 8.9 3.30938 8.605 3.60438L7.71562 4.49376C7.62188 4.5875 7.57624 4.71095 7.57812 4.83376C7.58031 4.95095 7.62593 5.06721 7.71562 5.15657C7.80719 5.24814 7.92717 5.29376 8.04719 5.29376C8.16719 5.29376 8.28719 5.24814 8.37843 5.15657L9.26781 4.26688C9.74 3.79562 10 3.1675 10 2.49969C10 1.12157 8.87843 0 7.5 0Z"></path>
  </symbol>
</svg>