<svg width="0" height="0" class="hidden">
  <symbol version="1.0" xmlns="http://www.w3.org/2000/svg" preserveAspectRatio="xMidYMid meet" viewBox="0 0 720.000000 576.000000" id="rkn">
    <g transform="translate(0.000000,576.000000) scale(0.100000,-0.100000)" stroke="none">
      <path d="M3021 4334 l-304 -302 159 -158 c88 -88 189 -187 225 -221 l66 -63
219 219 c120 121 224 221 231 223 7 2 287 -271 623 -607 l611 -609 -228 -228
-228 -228 225 -225 225 -225 298 298 298 297 0 310 0 310 -756 755 -756 755
-302 0 -302 0 -304 -301z"></path>
      <path d="M2092 3417 l-302 -303 0 -304 0 -305 760 -758 760 -758 307 6 308 6
300 299 300 300 -227 227 -228 228 -227 -227 -228 -227 -602 600 c-332 329
-603 603 -603 609 0 5 99 107 220 227 121 119 220 222 220 228 0 10 -440 455
-450 455 -3 0 -141 -136 -308 -303z"></path>
      <path d="M3332 3137 c-166 -166 -302 -306 -302 -310 0 -4 73 -80 163 -168 89
-88 226 -224 303 -301 l142 -141 308 306 309 307 -305 305 c-168 168 -307 305
-310 305 -3 0 -141 -136 -308 -303z"></path>
    </g>
  </symbol>
</svg>